<?xml version="1.0" encoding="UTF-8"?>
<svg id="a" data-name="Layer 2" xmlns="http://www.w3.org/2000/svg" width="415.24" height="186.8626" viewBox="0 0 415.24 186.8626">
  <path d="M232.8951,171.1166c0,3.641,2.542,5.988,5.757,5.988,1.857,0,3.18-.463,4.716-1.639l1.397,1.938c-1.712,1.367-3.641,2.111-6.129,2.111-4.956,0-8.464-3.25-8.464-8.398s3.905-8.398,8.464-8.398c2.353,0,4.548.688,6.011,1.838l-1.403,2.186c-1.536-1.176-2.811-1.565-4.592-1.565-3.215,0-5.757,2.297-5.757,5.939M172.3891,166.2606c-1.625-.98-3.318-1.279-4.919-1.279-2.718,0-4.023.908-4.023,2.296,0,1.258,1.188,2.066,4.408,2.517,4.571.639,6.374,2.072,6.374,4.879,0,3.225-2.789,4.821-6.743,4.821-3.289,0-5.874-1.034-7.297-2.723l1.793-1.879c1.469,1.654,3.371,2.29,5.569,2.29,2.408,0,4.072-.801,4.072-2.41,0-1.425-.863-2.188-4.332-2.672-4.542-.634-6.418-1.973-6.418-4.724,0-2.683,2.498-4.724,6.565-4.724,2.207,0,4.396.469,6.067,1.468l-1.116,2.14ZM103.2021,166.2606c-1.625-.98-3.318-1.279-4.919-1.279-2.718,0-4.023.908-4.023,2.296,0,1.258,1.188,2.066,4.408,2.517,4.571.639,6.374,2.072,6.374,4.878,0,3.226-2.789,4.821-6.743,4.821-3.289,0-5.874-1.033-7.297-2.722l1.793-1.879c1.469,1.654,3.371,2.29,5.569,2.29,2.408,0,4.072-.801,4.072-2.41,0-1.425-.863-2.188-4.332-2.672-4.542-.634-6.418-1.973-6.418-4.724,0-2.684,2.499-4.724,6.565-4.724,2.207,0,4.396.469,6.067,1.468l-1.116,2.14ZM59.7541,176.6276c-1.345,1.935-3.707,2.853-5.97,2.853-3.248,0-6.43-1.607-6.43-5.379,0-3.641,3.215-5.217,6.495-5.183,1.936,0,4.068.425,5.709,1.345v-1.28c0-2.952-2.592-3.87-5.249-3.87-1.772,0-3.904.557-5.282,1.213l-.492-2.263c1.903-.853,3.805-1.379,5.806-1.379,4.33,0,7.841,1.576,7.841,6.332v10.202h-2.264l-.131-2.558-.033-.033ZM54.2431,171.1816c-2.1,0-4.232.788-4.232,2.986s2.329,2.985,4.166,2.985c2.756,0,5.348-1.804,5.446-4.593-1.444-.852-3.74-1.378-5.38-1.378M76.0641,163.0136l2.624,6.33,2.756,7.022,2.723-6.988,2.624-6.364h2.952l-6.823,16.239h-2.952l-6.857-16.239h2.953ZM108.1291,163.0786h2.559l.131,3.116c1.279-2.164,3.674-3.411,6.233-3.411,4.658.098,8.07,3.379,8.07,8.366,0,5.117-3.379,8.43-8.234,8.43-2.296,0-4.855-.983-6.135-3.28v10.563h-2.624v-23.784ZM122.4321,171.2146c0-3.641-2.395-5.806-5.708-5.806-3.379,0-5.675,2.493-5.675,5.806s2.394,5.806,5.675,5.84c3.247,0,5.708-2.198,5.708-5.84M138.1521,163.0136l2.624,6.33,2.755,7.022,2.723-6.988,2.625-6.364h2.952l-6.823,16.239h-2.953l-6.856-16.239h2.953ZM157.6581,158.0926c0,2.329-3.543,2.329-3.543-.032,0-2.33,3.543-2.33,3.543.032M154.5081,179.2186h2.69v-16.272h-2.69v16.272ZM180.4521,158.0926c0,2.329-3.543,2.329-3.543-.032,0-2.33,3.543-2.33,3.543.032M177.3031,179.2186h2.69v-16.272h-2.69v16.272ZM191.6731,162.6536c4.953,0,8.43,3.476,8.43,8.496,0,4.92-3.543,8.365-8.43,8.365-4.856,0-8.398-3.445-8.398-8.365,0-5.02,3.575-8.496,8.398-8.496M191.7051,165.1136c-3.313,0-5.741,2.426-5.741,6.036,0,3.411,2.395,5.838,5.709,5.838,3.345,0,5.74-2.427,5.773-5.838,0-3.61-2.493-6.036-5.741-6.036M203.4961,162.9806h2.461l.131,2.592c1.41-1.936,3.379-2.821,5.544-2.821,4.1,0,7.118,2.756,7.118,7.512v8.955h-2.69v-8.922c0-3.117-1.837-5.053-4.92-5.053-2.953.033-4.987,2.363-4.987,5.282v8.693h-2.657v-16.238ZM254.7501,162.6536c4.953,0,8.43,3.476,8.43,8.496,0,4.92-3.543,8.365-8.43,8.365-4.856,0-8.398-3.445-8.398-8.365,0-5.02,3.575-8.496,8.398-8.496M254.7821,165.1136c-3.313,0-5.741,2.426-5.741,6.036,0,3.411,2.395,5.838,5.709,5.838,3.345,0,5.74-2.427,5.773-5.838,0-3.61-2.493-6.036-5.741-6.036M266.6061,163.0456h2.493l.164,2.363c.984-1.902,2.953-2.657,4.79-2.657,2.231,0,4.527.951,5.445,3.542,1.181-2.492,3.412-3.542,5.708-3.542,4.264,0,6.824,2.787,6.824,7.217v9.25h-2.691v-9.25c0-2.657-1.541-4.692-4.199-4.692-2.656,0-4.428,2.1-4.428,4.757v9.185h-2.69v-9.185c0-2.657-1.673-4.757-4.363-4.757-2.657,0-4.396,2.1-4.396,4.757v9.185h-2.69v-16.205l.033.032ZM296.2581,163.0786h2.559l.131,3.116c1.279-2.164,3.674-3.411,6.233-3.411,4.659.098,8.07,3.379,8.07,8.366,0,5.117-3.379,8.43-8.234,8.43-2.296,0-4.855-.983-6.134-3.28v10.563h-2.625v-23.784ZM310.5611,171.2146c0-3.641-2.395-5.806-5.708-5.806-3.379,0-5.675,2.493-5.675,5.806s2.395,5.806,5.675,5.84c3.248,0,5.708-2.198,5.708-5.84M327.9651,176.6276c-1.345,1.935-3.707,2.853-5.97,2.853-3.248,0-6.43-1.607-6.43-5.379,0-3.641,3.215-5.217,6.495-5.183,1.936,0,4.068.425,5.708,1.345v-1.28c0-2.952-2.591-3.87-5.248-3.87-1.772,0-3.904.557-5.282,1.213l-.492-2.263c1.902-.853,3.805-1.379,5.806-1.379,4.33,0,7.841,1.576,7.841,6.332v10.202h-2.264l-.131-2.558-.033-.033ZM322.4541,171.1816c-2.099,0-4.232.788-4.232,2.986s2.329,2.985,4.166,2.985c2.756,0,5.347-1.804,5.446-4.593-1.444-.852-3.74-1.378-5.38-1.378M334.6771,162.9806h2.461l.131,2.592c1.41-1.936,3.379-2.821,5.544-2.821,4.101,0,7.118,2.756,7.118,7.512v8.955h-2.689v-8.922c0-3.117-1.837-5.053-4.921-5.053-2.953.033-4.987,2.363-4.987,5.282v8.693h-2.657v-16.238ZM357.6511,186.8626h-2.887l3.379-7.874-6.528-15.975h3.051l3.182,8.43,1.771,4.626,1.739-4.593,3.576-8.463h2.952l-10.235,23.849ZM342.532,66.536v28.311c0,6.515,2.135,10.67,8.762,10.67,2.471,0,5.279-.786,7.751-2.021l2.695,7.637c-3.706,1.686-7.076,2.584-10.783,2.697-11.907.224-17.523-6.74-17.523-18.983v-28.311h-11.121v-7.862h11.121v-16.285h9.211v16.285l21.557-.001,5.563.001,10.996,29.122,6.066,15.839,5.952-15.725,12.35-29.236h10.111l-34.42,80.211h-9.886l10.839-25.254-19.247-47.095h-19.994ZM306.4,58.68h9.251v55.623h-9.251v-55.623ZM242.352,58.567v55.736h9.138v-29.898c0-10.042,6.996-18.052,17.15-18.166,10.605,0,16.924,6.658,16.924,17.376v30.688h9.251v-30.802c0-16.358-10.38-25.836-24.483-25.836-7.446,0-14.216,3.045-19.067,9.703l-.452-8.688h-8.461v-.113ZM220.797,66.792v47.511h9.252v-55.634h-34.368v-10.907c0-8.349,4.042-11.65,9.882-12.936,1.864-.409,3.372-.446,6.639-.381v-8.265c-2.829-.041-5.346.073-6.783.208-10.195.957-18.878,8.625-18.878,21.374v10.907h-10.944v8.123h10.944v47.512h9.14v-47.512h25.116ZM169.256,105.39l-6.205-5.642c-3.723,4.514-11.395,6.996-17.713,6.996-10.719,0-19.181-6.431-20.196-16.699h47.387c2.143-22.226-10.832-32.718-27.868-32.718-16.811,0-28.884,12.071-28.884,28.883,0,17.713,12.073,29.108,29.335,29.108,8.688,0,18.39-3.272,24.032-9.928h.112ZM163.728,82.261h-38.586c1.579-10.719,10.041-16.585,19.744-16.585,10.944,0,18.391,5.866,18.842,16.697v-.112ZM70.679,138.476h9.884l34.244-79.802h-10.11l-12.349,29.236-5.953,15.726-6.065-15.84-10.996-29.122h-10.453l22.459,54.957-10.661,24.845ZM53.479,105.39l-6.205-5.642c-3.723,4.514-11.395,6.996-17.714,6.996-10.718,0-19.18-6.431-20.195-16.699h47.386c2.144-22.226-10.831-32.718-27.867-32.718-16.811,0-28.884,12.071-28.884,28.883,0,17.713,12.073,29.108,29.335,29.108,8.687,0,18.39-3.272,24.032-9.928h.112ZM47.951,82.261H9.365c1.579-10.719,10.041-16.585,19.744-16.585,10.944,0,18.391,5.866,18.842,16.697v-.112Z" fill="#595959" stroke-width="0"/>
  <path d="M405.0861,104.8066c-2.9127,0-4.9465,2.0559-4.9465,5s2.0338,5,4.9465,5,4.9457-2.0559,4.9457-5-2.0338-5-4.9457-5ZM408.9567,109.8066c0,2.4036-1.5557,4.0188-3.8706,4.0188-2.3013,0-3.857-1.6151-3.8714-4.0179.0144-2.4045,1.5701-4.0196,3.8714-4.0196,2.3149,0,3.8706,1.6151,3.8706,4.0188ZM407.4035,108.7163c-.0552-.7732-.6573-1.605-1.8487-1.605h-2.4006v5.2964h.9817v-1.8359h.8466l1.5209,1.7973.0331.0386h1.0037v-.3104l-1.4173-1.63c.9477-.2255,1.3307-1.0449,1.2806-1.751ZM406.3921,108.8441c0,.3919-.27.8135-.8645.8135h-1.3918v-1.605h1.419c.5757,0,.8373.4102.8373.7914Z" fill="#595959" stroke-width="0"/>
  <path d="M306.3999,0l-68.128,25.79c-4.949,1.873-8.223,6.613-8.223,11.905v10.798l76.351-28.894V0Z" fill="#3a60ff" stroke-width="0"/>
</svg>