<?xml version="1.0" encoding="UTF-8"?>
<svg id="a" xmlns="http://www.w3.org/2000/svg" version="1.1" viewBox="0 0 415.2 186.9">
  <!-- Generator: Adobe Illustrator 29.3.1, SVG Export Plug-In . SVG Version: 2.1.0 Build 151)  -->
  <defs>
    <style>
      .st0 {
        fill: #3a60ff;
      }

      .st1 {
        fill: #fff;
      }
    </style>
  </defs>
  <path class="st1" d="M232.9,171.1c0,3.6,2.5,6,5.8,6s3.2-.5,4.7-1.6l1.4,1.9c-1.7,1.4-3.6,2.1-6.1,2.1-5,0-8.5-3.2-8.5-8.4s3.9-8.4,8.5-8.4,4.5.7,6,1.8l-1.4,2.2c-1.5-1.2-2.8-1.6-4.6-1.6-3.2,0-5.8,2.3-5.8,5.9M172.4,166.3c-1.6-1-3.3-1.3-4.9-1.3-2.7,0-4,.9-4,2.3s1.2,2.1,4.4,2.5c4.6.6,6.4,2.1,6.4,4.9s-2.8,4.8-6.7,4.8-5.9-1-7.3-2.7l1.8-1.9c1.5,1.7,3.4,2.3,5.6,2.3s4.1-.8,4.1-2.4-.9-2.2-4.3-2.7c-4.5-.6-6.4-2-6.4-4.7s2.5-4.7,6.6-4.7,4.4.5,6.1,1.5l-1.1,2.1h0ZM103.2,166.3c-1.6-1-3.3-1.3-4.9-1.3-2.7,0-4,.9-4,2.3s1.2,2.1,4.4,2.5c4.6.6,6.4,2.1,6.4,4.9s-2.8,4.8-6.7,4.8-5.9-1-7.3-2.7l1.8-1.9c1.5,1.7,3.4,2.3,5.6,2.3s4.1-.8,4.1-2.4-.9-2.2-4.3-2.7c-4.5-.6-6.4-2-6.4-4.7s2.5-4.7,6.6-4.7,4.4.5,6.1,1.5c0,0-1.1,2.1-1.1,2.1ZM59.8,176.6c-1.3,1.9-3.7,2.9-6,2.9-3.2,0-6.4-1.6-6.4-5.4s3.2-5.2,6.5-5.2c1.9,0,4.1.4,5.7,1.3v-1.3c0-3-2.6-3.9-5.2-3.9s-3.9.6-5.3,1.2l-.5-2.3c1.9-.9,3.8-1.4,5.8-1.4,4.3,0,7.8,1.6,7.8,6.3v10.2h-2.3v-2.6c-.1,0-.2,0-.2,0ZM54.2,171.2c-2.1,0-4.2.8-4.2,3s2.3,3,4.2,3c2.8,0,5.3-1.8,5.4-4.6-1.4-.9-3.7-1.4-5.4-1.4M76.1,163l2.6,6.3,2.8,7,2.7-7,2.6-6.4h3l-6.8,16.2h-3l-6.9-16.2h3ZM108.1,163.1h2.6v3.1c1.4-2.2,3.8-3.4,6.4-3.4,4.7,0,8.1,3.4,8.1,8.4s-3.4,8.4-8.2,8.4-4.9-1-6.1-3.3v10.6h-2.6s0-23.8,0-23.8ZM122.4,171.2c0-3.6-2.4-5.8-5.7-5.8s-5.7,2.5-5.7,5.8,2.4,5.8,5.7,5.8c3.2,0,5.7-2.2,5.7-5.8M138.2,163l2.6,6.3,2.8,7,2.7-7,2.6-6.4h3l-6.8,16.2h-3l-6.9-16.2h3ZM157.7,158.1c0,2.3-3.5,2.3-3.5,0s3.5-2.3,3.5,0M154.5,179.2h2.7v-16.3h-2.7v16.3ZM180.5,158.1c0,2.3-3.5,2.3-3.5,0s3.5-2.3,3.5,0M177.3,179.2h2.7v-16.3h-2.7v16.3ZM191.7,162.7c5,0,8.4,3.5,8.4,8.5s-3.5,8.4-8.4,8.4-8.4-3.4-8.4-8.4,3.6-8.5,8.4-8.5M191.7,165.1c-3.3,0-5.7,2.4-5.7,6s2.4,5.8,5.7,5.8,5.7-2.4,5.8-5.8c0-3.6-2.5-6-5.7-6M203.5,163h2.5v2.6c1.5-1.9,3.5-2.8,5.7-2.8,4.1,0,7.1,2.8,7.1,7.5v9h-2.7v-8.9c0-3.1-1.8-5.1-4.9-5.1-3,0-5,2.4-5,5.3v8.7h-2.7v-16.2h0ZM254.8,162.7c5,0,8.4,3.5,8.4,8.5s-3.5,8.4-8.4,8.4-8.4-3.4-8.4-8.4,3.6-8.5,8.4-8.5M254.8,165.1c-3.3,0-5.7,2.4-5.7,6s2.4,5.8,5.7,5.8,5.7-2.4,5.8-5.8c0-3.6-2.5-6-5.7-6M266.6,163h2.5l.2,2.4c1-1.9,3-2.7,4.8-2.7s4.5,1,5.4,3.5c1.2-2.5,3.4-3.5,5.7-3.5,4.3,0,6.8,2.8,6.8,7.2v9.2h-2.7v-9.2c0-2.7-1.5-4.7-4.2-4.7s-4.4,2.1-4.4,4.8v9.2h-2.7v-9.2c0-2.7-1.7-4.8-4.4-4.8s-4.4,2.1-4.4,4.8v9.2h-2.7v-16.2h0ZM296.3,163.1h2.6v3.1c1.4-2.2,3.8-3.4,6.4-3.4,4.7,0,8.1,3.4,8.1,8.4s-3.4,8.4-8.2,8.4-4.9-1-6.1-3.3v10.6h-2.6v-23.8ZM310.6,171.2c0-3.6-2.4-5.8-5.7-5.8s-5.7,2.5-5.7,5.8,2.4,5.8,5.7,5.8c3.2,0,5.7-2.2,5.7-5.8M328,176.6c-1.3,1.9-3.7,2.9-6,2.9-3.2,0-6.4-1.6-6.4-5.4s3.2-5.2,6.5-5.2c1.9,0,4.1.4,5.7,1.3v-1.3c0-3-2.6-3.9-5.2-3.9s-3.9.6-5.3,1.2l-.5-2.3c1.9-.9,3.8-1.4,5.8-1.4,4.3,0,7.8,1.6,7.8,6.3v10.2h-2.3v-2.6c-.1,0-.2,0-.2,0ZM322.5,171.2c-2.1,0-4.2.8-4.2,3s2.3,3,4.2,3c2.8,0,5.3-1.8,5.4-4.6-1.4-.9-3.7-1.4-5.4-1.4M334.7,163h2.5v2.6c1.5-1.9,3.5-2.8,5.7-2.8,4.1,0,7.1,2.8,7.1,7.5v9h-2.7v-8.9c0-3.1-1.8-5.1-4.9-5.1-3,0-5,2.4-5,5.3v8.7h-2.7v-16.2h0ZM357.7,186.9h-2.9l3.4-7.9-6.5-16h3.1l3.2,8.4,1.8,4.6,1.7-4.6,3.6-8.5h3l-10.2,23.8h0ZM342.5,66.5v28.3c0,6.5,2.1,10.7,8.8,10.7s5.3-.8,7.8-2l2.7,7.6c-3.7,1.7-7.1,2.6-10.8,2.7-11.9.2-17.5-6.7-17.5-19v-28.3h-11.1v-7.9h11.1v-16.3h9.2v16.3h21.6s5.6,0,5.6,0l11,29.1,6.1,15.8,6-15.7,12.4-29.2h10.1l-34.4,80.2h-9.9l10.8-25.3-19.2-47.1s-20,0-20,0ZM306.4,58.7h9.3v55.6h-9.3v-55.6ZM242.4,58.6v55.7h9.1v-29.9c0-10,7-18.1,17.2-18.2,10.6,0,16.9,6.7,16.9,17.4v30.7h9.3v-30.8c0-16.4-10.4-25.8-24.5-25.8s-14.2,3-19.1,9.7l-.5-8.7h-8.5q0-.1,0-.1ZM220.8,66.8v47.5h9.3v-55.6h-34.4v-10.9c0-8.3,4-11.7,9.9-12.9,1.9-.4,3.4-.4,6.6-.4v-8.3c-2.8,0-5.3,0-6.8.2-10.2,1-18.9,8.6-18.9,21.4v10.9h-10.9v8.1h10.9v47.5h9.1v-47.5h25.1ZM169.3,105.4l-6.2-5.6c-3.7,4.5-11.4,7-17.7,7-10.7,0-19.2-6.4-20.2-16.7h47.4c2.1-22.2-10.8-32.7-27.9-32.7s-28.9,12.1-28.9,28.9,12.1,29.1,29.3,29.1,18.4-3.3,24-9.9c0,0,.1,0,.1,0ZM163.7,82.3h-38.6c1.6-10.7,10-16.6,19.7-16.6s18.4,5.9,18.8,16.7h0ZM70.7,138.5h9.9l34.2-79.8h-10.1l-12.3,29.2-6,15.7-6.1-15.8-11-29.1h-10.5l22.5,55-10.7,24.8h0ZM53.5,105.4l-6.2-5.6c-3.7,4.5-11.4,7-17.7,7-10.7,0-19.2-6.4-20.2-16.7h47.4c2.1-22.2-10.8-32.7-27.9-32.7S0,69.4,0,86.2s12.1,29.1,29.3,29.1,18.4-3.3,24-9.9c0,0,.1,0,.1,0ZM48,82.3H9.4c1.6-10.7,10-16.6,19.7-16.6s18.4,5.9,18.8,16.7c0,0,0-.1,0-.1Z"/>
  <path class="st1" d="M405.1,104.8c-2.9,0-4.9,2.1-4.9,5s2,5,4.9,5,4.9-2.1,4.9-5-2-5-4.9-5ZM409,109.8c0,2.4-1.6,4-3.9,4s-3.9-1.6-3.9-4c0-2.4,1.6-4,3.9-4s3.9,1.6,3.9,4h0ZM407.4,108.7c0-.8-.7-1.6-1.8-1.6h-2.4v5.3h1v-1.8h.8l1.5,1.8h0s1,0,1,0v-.3l-1.4-1.6c.9-.2,1.3-1,1.3-1.8ZM406.4,108.8c0,.4-.3.8-.9.8h-1.4v-1.6h1.4c.6,0,.8.4.8.8h0Z"/>
  <path class="st0" d="M306.4,0l-68.1,25.8c-4.9,1.9-8.2,6.6-8.2,11.9v10.8l76.4-28.9V0Z"/>
</svg>