<svg width="116" height="75" viewBox="0 0 116 75" fill="none" xmlns="http://www.w3.org/2000/svg">
<path d="M58.9012 40.7484L62.9386 31.8813L63.9704 40.7484H58.9012ZM68.4116 25.819H60.3368L47.1748 49.2265H55.0253L56.5236 46.0325H64.4459L64.8317 49.2265H72.8348L68.4116 25.819Z" fill="#D2202F"/>
<path d="M75.8585 49.1451H83.8615L87.0466 31.0941H94.0986L95.2112 25.8371H72.9426L71.7583 31.0941H79.0525L75.8585 49.1451Z" fill="#D2202F"/>
<path d="M92.1248 41.5628H99.8317C99.8317 41.5628 99.5626 44.1777 103.008 44.1777C106.812 44.1777 106.597 42.169 106.597 42.169C106.597 42.169 107.108 40.9385 103.403 40.0427C99.6972 39.1469 96.7095 38.4864 95.3278 36.3601C95.3278 36.3601 93.0399 34.1071 95.1842 29.4654C97.2298 25.0318 102.918 25.1133 102.918 25.1133C105.637 24.8191 108.387 25.0995 110.993 25.9366C116.188 27.9091 115.389 31.7365 115.389 31.7365H107.817C107.817 31.7365 108.409 29.5559 104.928 29.5559C102.757 29.5559 102.164 30.5783 102.164 31.2298C102.164 31.2298 101.662 32.8856 106.238 33.5099C106.238 33.5099 110.544 34.5867 112.24 35.7539C113.936 36.9211 115.174 38.9026 114.286 42.0876C113.836 43.6028 113.043 44.992 111.97 46.1459C110.898 47.2999 109.574 48.1872 108.104 48.7379C105.287 49.7604 100.567 50.6019 96.4403 48.7379C95.0352 48.1995 93.8508 47.1998 93.0777 45.8999C92.3046 44.5999 91.9879 43.0754 92.1786 41.5718" fill="#D2202F"/>
<path d="M33.5733 20.485H0V54.3431H33.5733V20.485Z" fill="#D2202F"/>
<path d="M40.8048 0H39.6743V75H40.8048V0Z" fill="#808285"/>
</svg>
