<?xml version="1.0" encoding="UTF-8"?>
<svg id="Layer_1" data-name="Layer 1" xmlns="http://www.w3.org/2000/svg" viewBox="0 0 474.88 292.34">
  <defs>
    <style>
      .cls-1 {
        fill: #fa8b22;
      }

      .cls-2 {
        fill: #010000;
      }

      .cls-3 {
        fill: #fe8822;
      }

      .cls-4 {
        fill: #bd6416;
      }

      .cls-5 {
        fill: #030303;
      }

      .cls-6 {
        fill: #381903;
      }

      .cls-7 {
        fill: #a7a9aa;
      }

      .cls-8 {
        fill: #fefefe;
      }

      .cls-9 {
        fill: #050200;
      }

      .cls-10 {
        fill: #9e5211;
      }

      .cls-11 {
        fill: #c76a18;
      }

      .cls-12 {
        fill: #f38020;
      }

      .cls-13 {
        fill: #fe8922;
      }

      .cls-14 {
        fill: #ac5a13;
      }

      .cls-15 {
        fill: #f38320;
      }
    </style>
  </defs>
  <path class="cls-7" d="M220.1.32c83.85-3.93,229.95,28.33,252.07,124.65,23.4,101.94-109.72,156.17-189.46,165.36C192.18,300.75,22.02,272.5,1.81,163.14-18.47,53.42,136.72,4.22,220.1.32Z"/>
  <path d="M208.19,8.65c82.31-5.19,224.65,19.27,253.88,110.93,32.14,100.78-108.26,156.09-185.19,163.73-83.07,8.26-226.73-14.7-262.23-103.26C-28.53,72.34,126.97,13.77,208.19,8.65Z"/>
  <g>
    <path class="cls-12" d="M229.87,191.65v25.6c0,1.15,2.86,5.51,4.65,6.02,21.53,6.19,9.97-19.28,13.37-29.67,1.04-3.16,6.61-1.7,9.36-1.95v30.36c0,10.71-21.91,11.38-29.44,8.01-1.72-.77-6.27-5.4-6.27-6.82v-31.55h8.33Z"/>
    <path class="cls-12" d="M152.47,194.05c-2.33,10.12-4.73,5.23-10.21,4.84-3.6-.26-12.49-1.23-12.46,4.08.03,7.66,27.02.37,24.97,17.72-1.78,15.09-25.59,10.91-35.62,6.65,3.45-10.8,4.92-5,11.59-3.84,3.83.67,15.7,1.56,15.56-4.07-.18-7.5-22.73-2.54-24.74-12.93-3.76-19.36,18.88-18.19,30.92-12.45Z"/>
    <path class="cls-14" d="M375.12,196.41c.42-1.74.82-5.7,3.57-4.76v8.32c-3.73,1.2-1.64-3.21-3.57-3.57Z"/>
    <path class="cls-11" d="M370.36,199.98c-.53-.01-1.01.05-1.18-.6.46-3.37-1.77-8.79,2.37-7.73.18.74-.2,1.84,0,2.38.32,2.48-.08,4.46-1.19,5.95Z"/>
    <path class="cls-6" d="M372.74,197.6c1.04.34,1.02.74,0,1.19-.54.01-1.74,1.21-2.38,1.19.07-1.91-.74-4.94,1.19-5.95.44,1.18,1.12,2.26,1.19,3.57Z"/>
    <path class="cls-1" d="M364.4,192.84l-.6,7.16-.6-7.16c.35-.78.75-.77,1.19,0Z"/>
    <path class="cls-10" d="M363.21,192.84c-1.94.68-3.45-.96-1.78-1.2l5.35.02c.37,1.71-.77,1.16-2.38,1.18h-1.19Z"/>
    <path class="cls-4" d="M375.12,196.41c-.23.96.29,3.19,0,3.57-.53.66-2.24-1.19-2.37-1.19v-1.19c.78-.34,1.56-1.34,2.38-1.19Z"/>
    <g>
      <path class="cls-12" d="M209.63,235.68l-7.66,3.68c-4.69-12.98-13.45-6.55-23.38-8.93-15.12-3.62-16.84-33.08-.18-38.44,20.41-6.57,32.06,5.82,28.55,26.17-.47,2.73-3.23,6.5-3.04,8.44.21,2.2,6.08,8.58,5.71,9.09Z"/>
      <path class="cls-2" d="M181.9,200.25c18.2-4.12,20.07,16.61,12.18,21.69-16.93,10.91-26.45-18.47-12.18-21.69Z"/>
    </g>
    <g>
      <path class="cls-12" d="M339.4,230.94c-6.05-.2-12-.59-17.86-1.19v-38.1h20.84c.85,0,7.37,2.59,8.59,3.32,6.68,3.98,7.11,14.05,6.29,21.09-1.23,10.56-8.03,13.96-17.86,14.88Z"/>
      <path class="cls-3" d="M339.4,230.94c-4.05.38-12.23.53-16.13.03-1.21-.15-1.33-.01-1.72-1.22,5.66.66,12.9-1.49,17.86,1.19Z"/>
      <path class="cls-2" d="M331.07,198.79c9.31.6,18.07-1.59,17.96,10.12-.12,13.7-5.36,14.76-17.96,13.69v-23.81Z"/>
    </g>
    <g>
      <path class="cls-12" d="M269.16,229.75l14.87-36.92c1.4-1.65,8.85-1.74,9.97-1.02,1.66,1.07,12.49,31.9,14.45,36.74-1.14,1.61-3.52,2.41-7.14,2.38-2.48-.66-1.62-5.63-3.11-6.03-1.04-.28-16.39-.27-17.53.02-1.23.31-1.22,3.28-3.17,4.82-2.61.77-5.99,1.18-8.33,0Z"/>
      <path class="cls-15" d="M308.45,228.56c.29.71,1.52,2.15,1.19,2.37-2.43-.38-6.22.58-8.33.01l7.14-2.38Z"/>
      <path class="cls-13" d="M277.49,229.75c-2.53,1.99-4.78,1.18-7.74,1.18l-.6-1.18h8.33Z"/>
      <path class="cls-9" d="M290.57,203.56c.8.79,3.12,11.11,4.78,13.08h-11.91c2.24-3.41,2.86-7.86,4.65-11.39.47-.92.42-3.73,2.47-1.69Z"/>
    </g>
    <g>
      <path class="cls-8" d="M129.86,130.93h-20.24v-19.05h37.5c2.98,0,5.06,5.01,5.38,7.72.81,6.81.92,26.72.04,33.42-1.06,8.06-21.89,16.21-29.36,17.08-38.04,4.39-67.53-19.18-63.56-58.79s60.28-57.11,89.05-30.99l-11.64,15.57c-5.79-1.63-10.16-5.4-16.42-6.31-47.56-6.97-50.71,64.54.29,59.2,13.5-1.41,8-6.74,8.95-17.84Z"/>
      <path class="cls-8" d="M367.98,124.98c7.88-8.54,14.53-19.52,20.24-29.76h26.19c.39,1.82-.4,2.8-1.11,4.25-2.58,5.31-22.2,27.4-22.32,29.69,3.25,4.32,8.08,16.9,12.24,19.5,5.21,3.26,13.71-.48,14.65.2.57.41,5.79,12.02,5.89,12.71.76,5.08-9.51,8.18-13.52,8.64-11.8,1.35-20.5-.66-27.78-10.33l-14.49-24.2v33.34h-23.81v-98.82h19.64c.49,0,4.17,4.74,4.17,5.36v49.41Z"/>
      <g>
        <path class="cls-8" d="M275.11,136.88c.57,10.44,12.43,15.41,21.7,15.15,4.09-.11,14.84-4.4,15.63-4.25.87.17,12.85,10.55,12.58,12.15-.98,5.83-22.38,11.25-27.85,11.52-30.3,1.48-51.16-25.63-42.68-54.59,10.95-37.41,67.05-37.99,78.14,0,.97,3.32,4.23,20.02-.97,20.02h-56.55Z"/>
        <path class="cls-5" d="M313.21,123.79h-38.1c3.28-21.35,36.55-22.31,38.1,0Z"/>
      </g>
      <g>
        <path class="cls-8" d="M185.81,136.88c1.44,15.09,18.67,16.5,30.76,13.5,1.85-.46,3.85-2.81,5.35-2.59,1.67.24,14.14,10.83,13.85,12.18-33.86,28.63-84.15.76-70.55-44.29,10.09-33.42,60.23-36.83,75.22-5.45,2.01,4.22,7.03,26.64,1.93,26.64h-56.55Z"/>
        <path class="cls-5" d="M185.81,123.79c.82-17.97,27.53-22.17,35.95-6.79.64,1.18,3.1,6.79.36,6.79h-36.31Z"/>
      </g>
    </g>
  </g>
</svg>