<?xml version="1.0" encoding="UTF-8"?>
<svg id="Layer_1" data-name="Layer 1" xmlns="http://www.w3.org/2000/svg" viewBox="0 0 355.99 118.23">
  <defs>
    <style>
      .cls-1 {
        fill: #9a4522;
      }

      .cls-2 {
        isolation: isolate;
      }
    </style>
  </defs>
  <g>
    <path class="cls-1" d="M48.76,35.27c.07-.33-.15-.45-.4-.6.17-.18.29-.55.6-.6.19.47-.15.91-.2,1.2Z"/>
    <path class="cls-1" d="M63.8,71.14c.2.01.4-.01.6,0,.18.65-.61.43-1,.6-.07-.33.15-.45.4-.6Z"/>
    <path class="cls-1" d="M53.37,103.61c-.17.16-.28.56-.6.6-.19-.47.33-.81.4-1,0,0,.2.4.2.4Z"/>
    <path class="cls-1" d="M1.45,22.84h-.4c.04-.25-.03-.54,0-.8.47.07.3.57.4.8Z"/>
    <path class="cls-1" d="M13.48.2c-.01.32.12.83-.2,1,0-.26.09-.67-.2-.8.26-.34.15-.49.4-.2Z"/>
    <path class="cls-1" d="M34.73,99.2c.05.11.49.53.4.6-.43.12-.42-.22-.6-.4,0,0,.2-.2.2-.2Z"/>
    <path class="cls-1" d="M17.69,20.64c-1.51-2.53-2.71-4.96-3.61-7.82-.3-.21-.29-.81-.2-1.2-.11-.39-.3-.81-.4-1.2-.7-2.96-.58-6.13-.4-9.08l.2-.14c.05-.41.11-.74.2-1,.47.54-.15,3.07-.2,3.91-.19,3.57.74,8.03,2.05,11.37.69,1.77,1.74,3.36,2.35,5.16h.01Z"/>
    <path class="cls-1" d="M64.6,24.85c5.46-6.14,7.98-14.86,7.44-23.08.08-.07.16-.13.25-.16.79-.23,3.42,5.89,3.64,6.52,2.04,5.98,2.32,12.71.3,18.73-.92,3.46-3.77,8.99-6.42,11.42-.05.23-.25.43-.6.6-.68.55-.61,1.18-.02.21.9-.04,2.4-1,2.43-1.41,4.6-2.87,8.52-7.21,10.86-12.09.26-.53,1.06-3.02,1.17-3.14.09-.09.55-.05.4.3-.18.79.16,1.61.2,2.31-.03,1.69-.1,3.36-.2,5.01v2.2c-1.12,8.34-6.28,14.73-13.43,18.84-.36.82-.76,1.02-1.2.6-.67.03-1.48.35-2,.8.39.04.79.04,1.2,0,.12-.39.52-.42.6,0,2.12-.37,4.66-.88,6.42-2,1.09-.45,2.34-1.07,3.41-1.6,1.3-.83,2.57-1.7,3.81-2.61.03-.03-.03-.16,0-.2l.48-.28c1.41-1.75,1.13-.43.71.95l-1.39,3.14c-.14.26-.2.47-.4.8-.36.15-.58.62-.6,1-1.22,1.83-2.97,4.04-4.81,5.21l-.6.6c-.95.99-2.08,1.79-3.41,2.4-.13.07-.27.13-.4.2-.84.49-1.64.76-2.41.8-2.08.76-4.22,1.3-6.42,1.6.3.09.5.23.6.4.01-.31.53-.29.6,0,3.82.62,7.49.51,11.23-.6-.34.71-1.04,1-1.6,1.4-1.17,1.06-2.41,2.05-3.81,2.81-1.6,1.12-3.85,2.2-5.81,2.61-.74-.09-1.48-.02-2.21.2l-2.61.2c-.94-.05-1.33-.17-2.21-.4-.31.04-.57.04-.8-.2-.12.17.02.37.4.6.62.33,1.2.65,1.8,1,1.27.58,2.67.87,4.22.85.35.67-3.78,1.41-4.23,1.46-2.57.31-5.14.04-7.4-1.31-1.04-.45-1.75-1.08-2.41-2l-.16-.3c.32-.98.77-1.89,1.36-2.71.83-.85,1.6-1.75,2.31-2.72-.23.21-.14,0,.09-.29.74-1.22,1.54-2.42,2.41-3.61,1.72-3.23,2.74-5.51,3.21-9.22.08-1.06.11-2.14,0-3.21,0-.03-.15-.35-.2-.6.12-.59.05-1.19-.2-1.8-.58-1.62-1.63-4.38-1.8-6.01.12-1.13.12-2.28,0-3.41.51-4.42,5.6-7.5,8.22-10.82h-.01Z"/>
    <path class="cls-1" d="M46.76,28.65c.05.14.17.27.2.4.34,2.2.32,4.31-.6,6.41v.4c-.07.17-.13.17-.2,0-.3.22-.29.24-.2.6.22-.26.44-.52.8-.4.53-.4,1.14-.92,1.6-1.4.55-.34.51.09.4.6-.28,1.74-.31,1.83-1.4,3.21-.38.21-.56.36-.6.8.16.7.19.11.5.39,2.47,2.23,2.94,4.9,3.31,8.03.17.07.17.13,0,.2-1.34,1.84-2.94,3.38-4.81,4.61.26.51.11.65-.4.4-.09.3-.32.49-.6.6.15.39-.07.82-.66,1.3-.95,2.31-1.6,2.55-1.95.7-.97-1.76-2.38-3.01-3.81-4.41-.08-.23.12-.43.6-.6,1.69-1.49,3.5-3.22,3.62-5.71.2-4.38-4.77-6.95-7.13-2.91-.76-1.37-.57-3.65.3-4.91,1.8-2.6,6.04-1.74,8.62-4.51.27-.12.48-.39.6-.8.23-.79.68-1.62,1-2.4.14-1.18.41-1.38.8-.6h.01Z"/>
    <path class="cls-1" d="M1.45,22.84c.35.85.71,1.61,1.2,2.4.19.58.46,1.11.8,1.6.58,1.35,1.44,2.54,2.21,3.81-.28-.15-.51-.35-.69-.61-.51-.71.05-.9-1.11-.59.12.21.36,1.16.4,1.2.14.14,1.05-.72.8.4-2.94-.4-.35,2.95-2.81,2.61,0-1.03-.17-2.11-.4-3.11-.19-.81-.72.2-.73.4,0,.19.27.42.27.62,0,.32-.18.62-.14.96.14,1.38,1.91,1.82.6,3.13-1.29-4.6-1.57-8.06-.8-12.83.04-.49.27-.48.4,0h0Z"/>
    <path class="cls-1" d="M74.62,4.61l.58.95c.29.44.49.94.61,1.49l.41,1.36c.61,2.87,1.44,5.18,1.6,8.22-.15,1.06-.14,2.15,0,3.21-.15,2.3-.66,4.92-1.6,7.01,2.03-7.64,1.59-15.47-2.11-22.44-.15-.29-1.38-2.33-1.5-2.41-.05-.03-.42-.07-.4.1.53,8.01-2.09,16.39-7.1,22.57-.22.27.04.58-.52.18,5.5-6.96,8.34-15.98,7.02-24.85,1.19,1.4,2.02,3.07,3.01,4.61Z"/>
    <path class="cls-1" d="M63.8,71.14c.05.24-.08.44-.4.6-.17.07-.34.3-.68.41-3.38,1.12-7.98,1.7-10.94-.61,3.44,1.51,6.65,1.66,10.27.54.29-.09,1.05-.27,1.16-.54-.85-.26-1.9-.08-2.69-.21-.59-.1-.93-.57-1.31-.79,1.57.65,3.02.48,4.61.6h-.02Z"/>
    <path class="cls-1" d="M71.62,37.67c.68.71-.42.47-.81.91-.18.2,0,.45-.02.47-.35.29-1.5-.11-1.58.82h.6l-.2,1c-.75.15-.25-.67-.4-.8-.03-.03-.77-.03-.8,0-.15.14.35.96-.4.8-.42-1.12.04-.86.19-1.15.13-.26.36-1.02.41-1.06.13-.1.5.2.6.2.19-.27.66-.45,1-.4.46-.24.97-.53,1.4-.8h0Z"/>
    <path class="cls-1" d="M75.63,50.5c.03.64-.94.82-1.4.8l.2.6c-1.74-.59-3.43.96-5.21.6.24-.55.91-.78,1.44-.58l1.77-.42c1.16-.2,2.11-.55,3.21-1h0Z"/>
    <path class="cls-1" d="M46.36,35.47c.09-.88.27-1.68.61-2.49v-3.92c.57,2.16.62,4.46-.61,6.41Z"/>
    <path class="cls-1" d="M70.61,51.1l-.2.6c.11.1,1.68-.14,2-.2-.99.44-2.15.78-3.21,1-.18.04-.42-.03-.6,0-.43.1-.63.04-.6-.2.16-.41.96-.61,1.4-.6.37-.18.87-.41,1.2-.6h0Z"/>
    <path class="cls-1" d="M70.01,60.92l-.06.26c-1.01.43-2.05.83-3.15.95-.56.14-1.43.31-2,.4-.02.32-.51.29-.6,0-.05.32-.38.2-.6,0,1.98-.34,3.83-1.05,5.73-1.59.23-.07.53.03.68-.01h0Z"/>
    <path class="cls-1" d="M72.42,60.12c-.66.32-1.36.84-2.15,1.15-.95.38-2.48.95-3.46.85.98-.24,2.29-.74,3.21-1.2.84-.24,1.57-.58,2.41-.8h-.01Z"/>
    <path class="cls-1" d="M82.84,46.29c-1.33,1.38-2.17,1.8-3.81,2.61.93-.77,1.92-1.5,2.9-2.21.29-.21.43-.49.9-.4h0Z"/>
    <path class="cls-1" d="M74.42,63.73c-.99,1.15-2.38,2.27-3.81,2.81,1.25-.87,2.54-1.89,3.81-2.81Z"/>
    <path class="cls-1" d="M52.97,63.53c-.06.17-.12.17-.2,0,.88-1.19,1.7-2.44,2.61-3.61-.46.87-2.35,3.4-2.41,3.61Z"/>
    <path class="cls-1" d="M82.64,49.9c.26-1.64,1.74-3.13,1.5-4.81-.36.36-.65,1.14-1.3,1,.63-.67,1.21-1.39,1.91-2-.06,2.05-1.14,4.01-2.11,5.81Z"/>
    <path class="cls-1" d="M52.97,63.53s.23.28.17.37c-.21.3-1.42,1.66-1.84,2.17-.13.16-.72.42-.73.47.71-1.04,1.45-1.99,2.21-3.01h.2,0Z"/>
    <path class="cls-1" d="M76.43,57.51c-.74,1.35-2.29,1.73-3.61,2.4l3.41-2.4c.06-.17.12-.17.2,0Z"/>
    <path class="cls-1" d="M84.25,30.06c-.06.17-.12.17-.2,0,.05-1.64-.21-3.44.2-5.01.09,1.54.07,3.46,0,5.01Z"/>
    <path class="cls-1" d="M50.57,66.53c-.05.16.27.55.2.6-1.01-.09-.37.17-.45.48-.06.25-.52.33-.73.67-.19.3-.09.91-.23,1.26-.05-.06-.32-.1-.38-.33-.18-.73,1.18-2.09,1.58-2.67h0Z"/>
    <path class="cls-1" d="M56.38,39.08c-.09-.84-.1-2.57,0-3.41.34.93.34,2.46,0,3.41Z"/>
    <path class="cls-1" d="M58.59,50.7v-3.21c.23,1.44.18,1.79,0,3.21Z"/>
    <path class="cls-1" d="M77.83,19.84c-.34-.85-.33-2.39,0-3.21.05.98.06,2.23,0,3.21Z"/>
    <path class="cls-1" d="M46.76,28.65l-.6-.2c.1.36-.09.54-.2.8l.2-1.8c.39.13.48.86.6,1.2Z"/>
    <path class="cls-1" d="M62.59,69.34h.2c-.72.33-1.97.25-2.81.2.68-.4,1.77-.16,2.61-.2Z"/>
    <path class="cls-1" d="M3.45,26.85c-.57-.29-.65-1.04-.8-1.6.49.78.44.75.8,1.6Z"/>
    <path class="cls-1" d="M64.8,69.14c-.65.13-1.34.15-2,.2h-.2c.56-.28,1.69-.64,2.21-.2h-.01Z"/>
    <path class="cls-1" d="M84.05,32.26c-.35-.54-.02-1.46,0-2.2h.2c-.04.77-.1,1.44-.2,2.2Z"/>
    <path class="cls-1" d="M58.38,46.89c-.12-.54-.17-1.24-.2-1.8.17.47.85,1.15.2,1.8Z"/>
    <path class="cls-1" d="M44.95,31.66c-.13.45.3.78-.5,1l-.1-.19c.1-.11.13-.74.6-.8h0Z"/>
    <path class="cls-1" d="M82.24,50.7c-.2.34-.38.67-.6,1l-.2-.1c.08-.23.63-1.35.8-.9Z"/>
    <path class="cls-1" d="M70.21,38.47c-.38.2-.34.41-1,.4-.15-.53.41-.42.6-.6,0,0,.4.2.4.2Z"/>
    <path class="cls-1" d="M47.36,38.47c-.21.26-.41.53-.6.8-.13-.56-.12-.64.6-.8Z"/>
    <path class="cls-1" d="M46.76,36.07c-.26.19-.39.47-.8.4-.18-.2-.09-.56.2-.6h.2s.24.24.4.2Z"/>
    <path class="cls-1" d="M64.8,62.52v.4c-.19-.03-.43.04-.6,0-.34-.14-.39-.35,0-.4.19-.02.42.03.6,0Z"/>
    <path class="cls-1" d="M56.98,68.94c.27.07.4.21.4.4v.2c-.26-.14-.61-.12-.8-.5,0-.18.26-.09.4-.1Z"/>
    <path class="cls-1" d="M76.83,56.91c-.12.21-.29.39-.4.6h-.2l-.2-.1c.16-.39.6-.37.8-.5Z"/>
    <path class="cls-1" d="M57.78,69.14c-.16-.03-.38.2-.4.2-.2-.02-.33-.22-.4-.4.51-.02.53.13.8.2Z"/>
    <path class="cls-1" d="M69.41,51.7c-.5.25-.87.42-1.4.6.02.34-.36.37-.6.2-.2-.43,1.18-.83,1.6-.93.15-.03.41-.11.4.12h0Z"/>
    <path class="cls-1" d="M68.61,52.5c-.24.04-.95.55-1.2,0,.22,0,.4-.13.6-.2l.6.2Z"/>
    <path class="cls-1" d="M64.2,62.52v.4c-.26-.06-.55-.06-.6-.4.2-.01.4.02.6,0Z"/>
    <path class="cls-1" d="M13.48,10.42c.34.14.49.85.4,1.2-.03.47-.03.94,0,1.4.96,2.58,2.06,5.09,3.55,7.58.08.71.31,1.13.87,1.55.09.59.26.86.53.81l1.07,1.29c1.41,1.28,2.5,2.78,4.01,4.01,1.53,1.3,2.86,2.77,4.01,4.41,1.8,3.98.86,5.64-.2,9.42-3.22,6.78-1.21,14.4,2.92,20.15,1.97,2.02,3.59,4.22,4.84,6.61.03,1.45-2.64,2.92-3.75,3.5-3.26,1.23-8.03,1.17-11.03-.8l.03-.22c1.13-.04,2.26-.1,3.38-.18,1.06-.19,2.7-.65,3.61-1.2,0-.19-.21-.26-.6-.2-2.49.52-5.95-.18-8.42-.8-1.46-.47-2.89-1.02-4.21-1.8-1.6-1.17-3.34-2.28-4.61-3.81-1.52-1.47-.57-1.12.8-.6,1.2.26,2.37.53,3.61.6,1.77.24,3.56.07,5.31-.26.14-.45.76-.42,1.11-.14.13-.19.13-.33,0-.4-.32.51-1.11.23-1.4-.2-3.98-.92-7.7-2.56-10.83-5.01-.86-.49-1.98-1.33-2.41-2.2-2.09-2.3-3.61-4.78-4.81-7.62-.38-.99-.71-1.74-1-2.81-.11-.43-.04-.63.2-.6,3.94,4.65,9.6,7.15,15.44,8.62.8-.08,1.4.05,1.8.4.37.02.5-.05.4-.2-.6.05-1.29-.07-1.6-.6-2.11-1.01-3.81-2.14-5.61-3.61-.88-.56-1.69-1.24-2.41-2-3.47-2.99-5.4-6.68-6.62-11.02l.11-.98c-.58-.6-1.77-5.9.07-4.62.61,3.72,1.01,4.16,1.21,1.31.12-.27.32-.47.58-.6-.7-1.82.41-2.64,1.32-.72l.52.6c.11.18.21.18.4.6,1.01,1.22,2.08,2.35,3.21,3.41l.8.6c.38-.21.52.12.2.4,1.5,1.14,3.03,2.21,4.61,3.21.24-.11.37-.24.4-.4-.38.14-.77-.3-.4-.6-.29-.45-.62-.85-1-1.2-.92.12-1.22-.88-1.4-1.6-1.08-1.6-2.18-3.85-3.01-5.61-2.07-4.83-2.79-9.86-2-15.03.83-4.88,2.36-9.69,5.41-13.63l.21.03c-.31,3.24-.18,6.44.39,9.58v-.02h0Z"/>
    <path class="cls-1" d="M.44,44.09l-.2.6c-.08-.28-.35-.57-.2-1,.24,0,.29.27.4.4Z"/>
    <path class="cls-1" d="M9.47,29.46c-2.32-4.94-2.93-9.59-2-15.03.02,1.85-.31,3.66-.21,5.52.17,3.28,1.23,6.42,2.21,9.51Z"/>
    <path class="cls-1" d="M32.12,63.73c.86.85,1.66,1.78,2.41,2.81.41.71,1.37,2.2,1.06,2.95-.06.14-1.24,1.53-1.41,1.67-.71.59-1.61.88-2.45,1.2l-.2-.8c1.29.4,1.11.12,1.91-.41s.43-.35.89-.84c.37-.4,1.08-.74,1.02-1.44-.09-1.02-3.53-5.04-4.4-6.04-.22-.25-.76-.49-.79-.53-.07-.12.19-.45.09-.57-.15-.19-.6-.09-.73-.33-.14-.27-.07-.81-.21-1.1-.08-.16-.28-.19-.35-.33-2.87-5.67-4.03-10.58-1.94-16.87.12-.36.35-.82.71-1-1.37,4.9-2.16,7.99-.54,13.07,1.06,3.31,2.83,5.9,4.95,8.58l-.02-.02h0Z"/>
    <path class="cls-1" d="M17.69,20.64c.72,1.21,1.48,2.4,2.21,3.61-.21-.19-.88-.83-1-.88-.16-.07-.49.09-.61,0-.36-.29-.08-.95-.23-1.1-.07-.07-.41.04-.53-.06-.12-.11.04-.86-.85-.76-.12-.15.62-.46.52-.81-.07-.25-.88-1.79-1.07-2.14-.11-.21-.32-.22-.39-.33-.26-.38.28-.72-.66-.33-.07-.08.38-1.52-.26-1.96-.14-.1-.48,0-.52-.05-.16-.17.12-.83.08-1.09-.06-.4-.4-1.2-.5-1.7,0-.18,0-.26.2-.2,1.08,2.64,2.28,5.25,3.61,7.82,0,0,0-.02,0-.02Z"/>
    <path class="cls-1" d="M8.46,57.31c.62-.4,1.03.57,1.36.8,1.03.74,2.74,1.78,3.88,2.27,1.84.81,3.78,1.09,5.58,1.93-.21.11-.48.11-.8,0-4.15-1.33-6.17-2.13-9.82-4.61-.18-.13-.25-.27-.2-.4h0Z"/>
    <path class="cls-1" d="M9.47,34.47s.34-.08.54.06c.83.6,2.86,3.36,2.47.54.27.4,1.04,1.13,1.4,1.6.36.05.63.51.4.8.71.75.12.75-.6.4-.75-.12-1.4-.54-1.95-1.25l-1.46-.95c-.08-.09-.12-.3-.2-.4-.59.16-.72-.02-.6-.6-.18-.06-.17-.12,0-.2Z"/>
    <path class="cls-1" d="M1.25,47.49c.73.37.69,1.34,1.03,2.08.8,1.76,2.27,3.28,3.43,4.75.21.26.35.41.35.78-.35-.12-.68-.38-1-.8-1.86-2.43-2.71-3.97-3.81-6.81Z"/>
    <path class="cls-1" d="M13.28,1.2c-.02.62-.19,1.14-.21,1.7-.1,2.53.08,5.02.41,7.52-.18-.71-.58-1.51-.6-2.31V.8c.05-.07.08-.25.2-.4.37-.29.39.46.2.8Z"/>
    <path class="cls-1" d="M19.29,62.32c.52.09.82.16,1.4.2.4-.01.35.25,0,.4-1.91.53-4.49.85-6.42.4,1.84.1,3.61-.08,5.41-.4-.11-.27-.91-.51-1.2-.6.26.03.56-.04.8,0h.01Z"/>
    <path class="cls-1" d="M9.47,34.47v.2c-.07.08-.13.08-.2,0-1.27-.92-2.61-2.1-3.21-3.41,1.3,1.05,2.02,2.22,3.41,3.21Z"/>
    <path class="cls-1" d="M34.53,66.53c-.94-.77-1.66-1.86-2.41-2.81.09-.41.52.22.6.31.73.92,1.21,1.47,1.81,2.5Z"/>
    <path class="cls-1" d="M18.09,52.9c.2.22.06.28-.4.2-.78-.11-1.1-.22-1.8-.4h.8l-.2-.4c.46.22,1.13.39,1.6.6Z"/>
    <path class="cls-1" d="M10.87,48.7c-.91-.42-1.81-1.2-2.41-2,.72.62,1.64,1.38,2.41,2Z"/>
    <path class="cls-1" d="M27.11,69.74c.32-.07.78-.49,1.2-.4-.07.28-.37.46-.6.6,0,0-.6-.2-.6-.2Z"/>
    <path class="cls-1" d="M11.67,7.61c.19-1.22.19-2.39.3-3.61.57.59.21,1.54.31,2.29.05.37.32.66.38,1.02.11.76-.23,1.4.01,2.09l-.8-.5c-.17-.47,1.01-.3.34-1.05-.13-.14-.42-.15-.54-.25-.05.31.04.68,0,1-1.41.17-.99-.05-1.52-.8-.1-.14-.46-.19-.49-.31-.22-.74.46-.38.71-.69.06-.07-.12-.39-.11-.41.42-.4.38.38.4.4.59.39.2-.59.6-.6.12.47.03,1.11.4,1.4v.02h.01Z"/>
    <path class="cls-1" d="M13.68,37.87c.78,0,1.19.26,1.2.8.18.06.17.12,0,.2-.42-.16-1.95-.73-2.15-.86s-.38-.87-.48-.94c-.21-.15-1.11.75-.57-.41-.57.09-1.04-.6-1.4-1,.48-.1.61.19.9.4.84.61,1.64,1.23,2.5,1.81Z"/>
    <path class="cls-1" d="M14.88,37.87c.11.13.21.38.4.6.23.36-.11.43-.4.2-.42-.24-.8-.53-1.2-.8.47,0,.7.14.6-.4.2-.15.4,0,.6.4Z"/>
    <path class="cls-1" d="M10.07,35.27c-.3,0-.97.6-1.2.4-.45-.4.97-.47.4-1,.04.03.16-.03.2,0,.34.24.36.32.6.6Z"/>
    <path class="cls-1" d="M13.88,36.67c.75-.22.73.65,1,1.2-.13-.14-.49-.26-.6-.4-.24-.29-.27-.63-.4-.8Z"/>
    <path class="cls-1" d="M15.28,38.47c.2.24.73.32.6.8-.31-.23-.67-.27-1-.4v-.2s.4-.2.4-.2Z"/>
    <path class="cls-1" d="M14.08,12.82l-.2.2c-.08-.42-.37-1.16,0-1.4.1.36.09.86.2,1.2Z"/>
    <path class="cls-1" d="M18.09,52.9c.27.12.67.15.6.4-.41.19-.8-.17-1-.2,0,0,.4-.2.4-.2Z"/>
    <path class="cls-1" d="M20.69,62.52c.2.01.4-.01.6,0-.04.34-.36.33-.6.4v-.4Z"/>
    <path class="cls-1" d="M27.91,32.66l-4.01-4.41c1.69,1.37,3.06,2.31,4.01,4.41Z"/>
    <path class="cls-1" d="M6.06,55.11c.74.74,1.81,1.56,2.41,2.2.08.09.12.29.2.4-1.91-1.3-2.23-1.61-3.61-3.41.31.25.73.54,1,.8h0Z"/>
    <path class="cls-1" d="M18.69,68.94c-1.77-.44-2.73-.72-4.21-1.8,0,0,4.21,1.8,4.21,1.8Z"/>
    <path class="cls-1" d="M24.1,71.14c-.06.01-.21.18-.48.21-.92.1-2.09-.26-2.92.19-.15-.1-.4-.17-.4-.4h3.81-.01Z"/>
    <path class="cls-1" d="M10.67,62.72c-.35-.07-1.35-.45-1.4-.4-.35.36.79.54.6,1-.24-.11-1.44-1.17-1.2-1.4l2,.8Z"/>
    <path class="cls-1" d="M46.16,35.87l-.2.6c-.36-.06-.34-.8.2-.6Z"/>
    <path class="cls-1" d="M44.75,53.51c.23-.27.41-.4.6-.6.02.4-.2.6-.6.6Z"/>
    <path class="cls-1" d="M53.17,57.91c-1.23,2.07-2.57,4.08-4.01,6.01-1.6,2.92-2.64,5.02-1.4,8.42.05.31.15.6.4.8.83,1.64,2.43,3.18,3.61,4.61.59.92,1.26,1.79,2,2.61,2.52,3.47,4.77,8.9,3.36,13.15l.25.13c-.09.94-.58,4.3-1.11,4.84-.2.2-.68-.6-.63-.88-.36.1-.71.16-1.06.19-.11-1.13-.21-2.29-.2-3.41-.09-1.6-3.19-8.69-4.41-9.02-.05-.01-.12.08-.2.2,0,.55.21.95.6,1.2.42-.08.55.19.4.8.43,1.14,1,3.02,1.2,4.21.1,2.21.1,4.41,0,6.61-.54,3.57-2.18,6.71-4.21,9.62-.3.29-.57.62-.8,1-1.23,2.11-3.85,4.79-5.81,6.21-.61.61-1.27,1.16-2,1.6-.07.06-.13.14-.2.2-1.43.75-.71-.45-.2-1.2.35-.57.75-1.1,1.2-1.6.39-.66.62-1.25,1.2-1.8.56-.79.96-1.59,1.2-2.4.7-1.59,1.17-3.35,1.6-5.01.59-.61,1.14-2.49.84-3.29.41-2.14.81-4.61-.04-6.73-.45-4.5-2.32-8.34-2.8-12.73-.69-6.34.61-11.5,2-17.53.06-.17.12-.17.2,0,.43-.46.7-1.06.8-1.8-.14-.45.34-1.45.8-1.6.41-.54.75-1.14,1-1.8-.28-.28-.16-.4.2-.2.66-.39,1.19-1.05,1.59-1.99,1.31-1.15,2.45-2.36,3.42-3.62.64-1.55,2.08-3.14,3.61-3.81-.06,2.79-.89,5.72-2.41,8.02h0Z"/>
    <path class="cls-1" d="M52.37,45.29c.22-.68.53-1.31.92-1.9.28-.03,1.15,1.95,1.29,2.3.82,1.63,1.04,2.32,1,4.21-1.23,1.24-2.38,2.57-3.61,3.81-.97,1.24-2.08,2.41-3.32,3.52-.29.75-1,1.75-1.69,2.09-.05.07-.15.12-.2.2-.06.32-.2.45-.4.4-.06.1-.13.1-.2,0,.47-.64-.07-.94-.6-.6.16-.94-.33-.45-.65-.61-.19-.1-.14-.32-.31-.38-.19-.07-.58.05-.64,0-.08-.07-.09-1.62-.41-2-.76,1.2-1.55.41-1.4-.8.13.24.25.48.38.71.07.13.07.66.42.29.06-.07.38-1.22.64-1.66.4-.68.74-.85,1.16-1.34.29-.12.5-.3.6-.6.14-.14.27-.26.4-.4.77-.82,1.62-1.17,2.55-1.04,0-.54.03-1.05.66-1.16l.24-.33c.44.04.92-.35.57-.67-.31-.23-.11-.56.59-.99l.21-.41v-.2c.72-.69,1.25-1.59,1.8-2.4v-.04h0Z"/>
    <path class="cls-1" d="M55.18,101c-.06.11-.13.11-.2,0-.2-.39-.19-1.53-.02-1.92.71-.37.58-.46-.38-.28-.17-.07-.17-.13,0-.2-.13-.3-.13-.57,0-.8.3-.54.82-.64,1.4-.6l.2,1.2c.47-1.53.88-3.01,1-4.61l-.4.2c-.3-.82.49-1.18.6-1.71.39-2.01-.82-6.96-1.82-8.79-.12-.22-.52-1-.64-1.08-.46-.29-.65.39-.34-.85l-1,.4c-.31-.61.59-.74.6-.9,0-.04-.37-.67-.4-.7.06-.1.13-.1.2,0,4.52,6.31,5.1,13.88,1.2,20.64Z"/>
    <path class="cls-1" d="M49.76,85.57c0-.07-.42-.59.3-.6.17,0,.05.29.24.41s.55.13.64.22c.03.03-.12.36-.03.52,1.69,3.1,2.92,4.43,3.47,8.27-.06.17-.12.17-.2,0-.37-2.35-1.3-4.24-2.41-6.21-.57-.8-1.17-1.6-1.8-2.4-.11.14-.17.07-.2-.2h-.01Z"/>
    <path class="cls-1" d="M54.58,98.8l.7-.8c.52.35.56.81.5,1.4l-.6-.2c.14.81.17,1.08-.2,1.8-.22.44-.42.91-.6,1.4-.06.07-.13.14-.2.2l-.79.8c.3-1.54.69-3.08,1.19-4.6Z"/>
    <path class="cls-1" d="M49.16,63.93c1.15-2.1,2.67-3.97,4.01-6.01-.93,2.16-2.49,4.21-4.01,6.01Z"/>
    <path class="cls-1" d="M54.58,98.6v.2c-.13,1.24-.57,3.04-1.2,4.11-.02.46.03.37.27.07.35-.44.47-.33.53-.38,0,.57-.49.71-.8,1-.41.22-.34-.04-.2-.4.45-1.33,1.09-3.66,1.2-5.01.12-.04.18.1.2.4h0Z"/>
    <path class="cls-1" d="M53.97,80.36h-.2c-.05-.06-.81-.32-.9-.8l-.1.6c-1-.44-.19-.72-.23-1.07-.06-.53-.96-.67-.77-1.34.74.9,1.46,1.57,2.21,2.61h-.01Z"/>
    <path class="cls-1" d="M51.97,98.4c-.37-.21-.18-.72-.14-1.04.12-1.17.21-2.3.15-3.48-.03-.67-.5-1.53,0-2.1.35,2.04.31,4.57,0,6.61h-.01Z"/>
    <path class="cls-1" d="M38.74,115.83c-.23.72-.83,1.39.2,1.2-.52.45-1.05,1.13-1.8,1.2-.22-.21,1.39-2.14,1.6-2.4Z"/>
    <path class="cls-1" d="M74.62,4.61c.29.45,1,.78.8,1.6l.6-.2c-.21.81.03,1.6.2,2.4l-1.6-3.81h0Z"/>
    <path class="cls-1" d="M54.58,97.8c0,.26.02.54,0,.8l-.2-.4c.09-1.05-.04-2.75-.2-3.81h.2c.17,1.18.23,2.2.2,3.41Z"/>
    <path class="cls-1" d="M49.96,85.77c1.09.47,1.26,1.43,1.8,2.4-.54-.25-.8-1.82-1-.6-.08-.21-.28-.54-.4-.8-.41-.21-.68-.6-.4-1Z"/>
    <path class="cls-1" d="M54.58,45.69c-.17-.34-.53-.76-.75-1.16s-.26-1.38-.7-.59c-.29.51-.39.8-.76,1.35-.03-.39.67-2.21.9-2.2.57.75,1.22,1.64,1.3,2.6h0Z"/>
    <path class="cls-1" d="M41.14,115.23c-.46.67-1.23,1.32-2,1.6.77-.67,1.2-1.02,2-1.6Z"/>
    <path class="cls-1" d="M54.38,102.41c-.38-.51.45-1.11.6-1.4h.2c-.3.52-.26.83-.8,1.4Z"/>
    <path class="cls-1" d="M47.76,108.02c-.24.34-.3.83-.8,1,.21-.35.23-1.11.8-1Z"/>
    <path class="cls-1" d="M48.16,73.15c-.37-.13-.44-.44-.4-.8.02.06.32.65.4.8Z"/>
    <path class="cls-1" d="M51.97,53.71c.36.44-.02.44-.23.67-.93,1.02-2.09,2.07-3.13,2.98l.15.95c-1.3-.49-.55,1.65-1.8,1,1.68-2.48,2.96-3.53,5.01-5.61h0Z"/>
    <path class="cls-1" d="M44.15,64.73c.17-.5.35-1.16.6-1.6.04-.07.15-.13.2-.2-.14.67.35,1.68-.8,1.8Z"/>
    <path class="cls-1" d="M49.96,85.77c.04.38.25.67.4,1-.97-.16-.65-.55-.6-1.2.1.03.15.18.2.2Z"/>
    <path class="cls-1" d="M50.57,47.89c0,.08.25.32.2.39-.13.15-1.09.33-1,1.02-.02.43-.29.76-.8,1,.03.13.26.32.2.4-.02.02-.35-.07-.4.14-.17.65.36,1.02-.9,1.08-.35.02-.75-.21-.98-.17-.45.08-.39,1.03-1.12.76,1.56-1.58,3.17-3.12,4.81-4.61h-.01Z"/>
    <path class="cls-1" d="M49.76,49.3c.2-.08.31-.28.6-.2-.06.91-.45,1.41-1.4,1.2,0-.02-.16-.04-.16-.1.02-.38.62-.77.96-.91h0Z"/>
    <path class="cls-1" d="M32.32,44.09c2.2,3.33,2.62,3.68,5.41,6.41.44.13.64.33.6.6,1.02.1,2.12,1.44,2.8,2.28.77.68,1.11,1.39,1.01,2.13.05.31.34,1.61.83,1.18.96-1.49,1.28.12,1.32,1.2.47.14,2.24.95,2.34,1.26.09.26-.24.64-.48.77-.45,1.1-.99,2.16-1.6,3.21-.1.53-.34,1.12-.6,1.6.14.3.21.62.19.95-2.45,8.59-2.75,17.05.33,25.5.52,1.38.61,2.65.28,3.82.82,2.05.48,4.44.07,6.56.27,1.03-.22,2.63-.87,3.46.28,1.53-.42,4-1.6,5.01-.17.9-.59,1.7-1.2,2.4.19.52-.6,1.91-1.2,1.8-.28.47-.62.8-1,1,1.64-4.45,2.75-6.94,1.4-11.82-.34-.9-.74-1.77-1.2-2.61-2.61-5.43-3.82-6.32-4.61-12.83-.17-.72-.16-1.49,0-2.2.14-.33.24-.82-.2-.8.08.38-.05.79-.4,1.2-1.37,4.34-.91,8.19.6,12.43.08.41.02.61-.2.6-5.73-5.98-7.76-12.93-2.41-20.04.41-.35.74-.75,1-1.2.27-.28.51-.48.8-.8.57-.88,1.22-1.71,2-2.4,3.43-5.09,2.3-6.92-.8-11.42l-.8-1c-.07-.16-.12-.4-.2-.6-.21-.45-.48-.85-.8-1.2-2.8-4.44-5.02-10.59-2.21-15.63.58-1.67,1.04-1.94,1.4-.8v-.02h0Z"/>
    <path class="cls-1" d="M34.73,99.2c.23.28.13.39-.2.2-.07-.07-.14-.13-.2-.2l.2-.6c.07.19.15.49.2.6Z"/>
    <path class="cls-1" d="M34.53,85.77c.02.73,0,1.47,0,2.2,0-.04-.18-.23-.21-.49-.07-.54.06-1.16,0-1.72h-.2l-.2.4c.15-.46.15-.7.4-1.2.42-.23.37.45.2.8h0Z"/>
    <path class="cls-1" d="M38.74,115.83c.07-.21.13-.4.2-.6l1-1c-.55.93-.58.85-1.2,1.6Z"/>
    <path class="cls-1" d="M38.94,50.5c-.17.15-.27.53-.6.6-.2-.2-.4-.4-.6-.6.41.17.79.17,1.2,0Z"/>
    <path class="cls-1" d="M44.75,94.99c.33.15.53.33.6.71s.27,3.67.22,4.02c-.05.36-.35.25-.41.43-.11.36-.02,1.03-.21,1.46l.4-.2c.17,1.65-1.04,2.8-.8,4.41l-.6-.8c.94-3.63,1.18-6.26.8-10.02h0Z"/>
    <path class="cls-1" d="M35.93,85.97c.13.11.3,2.51.2,2.61-1.85.49-1.15-3.39-.2-2.61Z"/>
    <path class="cls-1" d="M42.35,110.02c.56.55-.4,1.03-.39,1.09.02.15.44.86.39.91-.54-.24-.81.03-1.2.4.12-.88.88-1.67,1.2-2.4Z"/>
    <path class="cls-1" d="M46.36,59.92c.16.43-.26,1.07-.6,1.4-.26.56-.64.85-.8,1.6-.03.15-.1.22-.2.2-.06.11-.13.11-.2,0,.43-1.01.71-1.88,1.25-2.87.09-.16.18-.27.35-.34h.2Z"/>
    <path class="cls-1" d="M44.75,63.13c.06.55-.06,1.3-.6,1.6h-.2c.24-1.06.28-.85.6-1.6h.2Z"/>
    <path class="cls-1" d="M34.53,85.77c0-.26.1-.66-.2-.8.13-.27.14-.67.4-.6-.04.44.18,1.12-.2,1.4Z"/>
    <path class="cls-1" d="M46.76,59.52c0,.62-.48,1.76-1,1.8.21-.44.32-.93.6-1.4.09-.14.31-.26.4-.4Z"/>
    <path class="cls-1" d="M32.32,44.09c-.09-.13-.5-.67-.6-.6-.02.57-.62,1.07-.8,1.4-.1-.36.71-2,.9-2,0,0,.5,1.2.5,1.2Z"/>
    <path class="cls-1" d="M35.73,74.75c-.67.99-1.21,1.54-2,2.4.35-.87,1.14-2.01,2-2.4Z"/>
    <path class="cls-1" d="M40.34,103.41c-.65-.64-.81-1.79-1.2-2.61.77.6.96,1.72,1.2,2.61Z"/>
    <path class="cls-1" d="M33.12,60.52c.79.13.59.65.8,1.2-.53-.22-.58-.85-.8-1.2Z"/>
    <path class="cls-1" d="M31.92,79.16c.42-.55.46-.66,1-1.2-.06.55-.57.91-1,1.2Z"/>
    <path class="cls-1" d="M34.93,63.33c-.54-.24-.6-.55-.8-1,.58.17.6.71.8,1Z"/>
  </g>
  <g class="cls-2">
    <g class="cls-2">
      <path class="cls-1" d="M92.35,80.36v-35.53h13.4c2.36,0,4.16.11,5.41.34,1.75.29,3.21.84,4.39,1.66,1.18.82,2.13,1.96,2.85,3.43.72,1.47,1.08,3.09,1.08,4.85,0,3.02-.96,5.58-2.88,7.67-1.92,2.09-5.4,3.14-10.42,3.14h-9.11v14.45h-4.7ZM97.06,61.72h9.19c3.04,0,5.19-.57,6.47-1.7,1.28-1.13,1.91-2.72,1.91-4.78,0-1.49-.38-2.76-1.13-3.82-.75-1.06-1.74-1.76-2.97-2.1-.79-.21-2.25-.31-4.39-.31h-9.09v12.7Z"/>
      <path class="cls-1" d="M124.91,80.36v-35.53h4.36v12.75c2.04-2.36,4.6-3.54,7.71-3.54,1.91,0,3.56.38,4.97,1.13,1.41.75,2.41,1.79,3.02,3.11.61,1.33.91,3.25.91,5.77v16.31h-4.36v-16.31c0-2.18-.47-3.77-1.42-4.76s-2.28-1.49-4.01-1.49c-1.29,0-2.51.33-3.65,1.01-1.14.67-1.95,1.58-2.44,2.73s-.73,2.73-.73,4.75v14.08h-4.36Z"/>
      <path class="cls-1" d="M150.89,67.49c0-4.77,1.32-8.3,3.97-10.59,2.21-1.91,4.91-2.86,8.1-2.86,3.54,0,6.43,1.16,8.68,3.48,2.25,2.32,3.37,5.52,3.37,9.61,0,3.31-.5,5.92-1.49,7.82-.99,1.9-2.44,3.37-4.34,4.42-1.9,1.05-3.97,1.58-6.22,1.58-3.6,0-6.52-1.16-8.74-3.47-2.22-2.31-3.33-5.64-3.33-9.99ZM155.37,67.49c0,3.3.72,5.76,2.16,7.4,1.44,1.64,3.25,2.46,5.43,2.46s3.97-.82,5.41-2.47c1.44-1.65,2.16-4.16,2.16-7.54,0-3.18-.72-5.59-2.17-7.24-1.45-1.64-3.24-2.46-5.39-2.46s-3.99.82-5.43,2.45c-1.44,1.63-2.16,4.1-2.16,7.39Z"/>
      <path class="cls-1" d="M197.74,72.07l4.51.56c-.71,2.63-2.03,4.68-3.95,6.13s-4.38,2.18-7.37,2.18c-3.77,0-6.75-1.16-8.96-3.48-2.21-2.32-3.31-5.57-3.31-9.76s1.11-7.69,3.34-10.08c2.23-2.39,5.12-3.59,8.68-3.59s6.25,1.17,8.44,3.51c2.18,2.34,3.27,5.64,3.27,9.89,0,.26,0,.65-.02,1.16h-19.2c.16,2.83.96,4.99,2.4,6.5,1.44,1.5,3.23,2.25,5.38,2.25,1.6,0,2.97-.42,4.1-1.26s2.03-2.18,2.69-4.02ZM183.42,65.02h14.37c-.19-2.17-.74-3.79-1.65-4.87-1.39-1.68-3.19-2.52-5.41-2.52-2,0-3.69.67-5.05,2.01-1.37,1.34-2.12,3.13-2.27,5.38Z"/>
      <path class="cls-1" d="M207.73,80.36v-25.74h3.93v3.66c1.89-2.83,4.62-4.24,8.19-4.24,1.55,0,2.98.28,4.28.84,1.3.56,2.27,1.29,2.92,2.19s1.1,1.98,1.36,3.22c.16.81.24,2.22.24,4.24v15.83h-4.36v-15.66c0-1.78-.17-3.11-.51-3.99-.34-.88-.94-1.58-1.81-2.11-.87-.52-1.88-.79-3.04-.79-1.86,0-3.46.59-4.81,1.77-1.35,1.18-2.02,3.42-2.02,6.71v14.06h-4.36Z"/>
      <path class="cls-1" d="M235.36,49.84v-5.02h4.36v5.02h-4.36ZM235.36,80.36v-25.74h4.36v25.74h-4.36Z"/>
      <path class="cls-1" d="M243.46,80.36l9.4-13.38-8.7-12.36h5.45l3.95,6.04c.74,1.15,1.34,2.11,1.79,2.88.71-1.07,1.37-2.01,1.96-2.84l4.34-6.08h5.21l-8.9,12.12,9.57,13.62h-5.36l-5.28-8-1.41-2.16-6.76,10.16h-5.28Z"/>
      <path class="cls-1" d="M271.21,49.84v-5.02h4.36v5.02h-4.36ZM271.21,80.36v-25.74h4.36v25.74h-4.36Z"/>
      <path class="cls-1" d="M291.81,80.36v-31.34h-11.71v-4.19h28.17v4.19h-11.76v31.34h-4.7Z"/>
      <path class="cls-1" d="M324.65,72.07l4.51.56c-.71,2.63-2.03,4.68-3.95,6.13-1.92,1.45-4.38,2.18-7.37,2.18-3.76,0-6.75-1.16-8.96-3.48-2.21-2.32-3.31-5.57-3.31-9.76s1.11-7.69,3.34-10.08c2.23-2.39,5.12-3.59,8.68-3.59s6.25,1.17,8.44,3.51c2.18,2.34,3.27,5.64,3.27,9.89,0,.26,0,.65-.02,1.16h-19.2c.16,2.83.96,4.99,2.4,6.5s3.23,2.25,5.38,2.25c1.6,0,2.96-.42,4.1-1.26,1.13-.84,2.03-2.18,2.69-4.02ZM310.33,65.02h14.37c-.19-2.17-.74-3.79-1.65-4.87-1.39-1.68-3.19-2.52-5.41-2.52-2,0-3.69.67-5.05,2.01-1.37,1.34-2.12,3.13-2.27,5.38Z"/>
      <path class="cls-1" d="M334.66,80.36v-35.53h4.36v20.26l10.33-10.47h5.65l-9.84,9.55,10.83,16.19h-5.38l-8.51-13.16-3.08,2.96v10.2h-4.36Z"/>
    </g>
  </g>
</svg>