<?xml version="1.0" encoding="UTF-8"?>
<svg id="Layer_1" xmlns="http://www.w3.org/2000/svg" version="1.1" viewBox="0 0 360 156.73">
  <!-- Generator: Adobe Illustrator 29.3.1, SVG Export Plug-In . SVG Version: 2.1.0 Build 151)  -->
  <defs>
    <style>
      .st0 {
        font-family: MyriadPro-Regular, 'Myriad Pro';
        font-size: 49.64px;
      }

      .st0, .st1 {
        fill: #9a4522;
      }
    </style>
  </defs>
  <g>
    <path class="st1" d="M59.26,58.24c.07-.33-.15-.45-.4-.6.17-.18.29-.55.6-.6.19.47-.15.91-.2,1.2Z"/>
    <path class="st1" d="M74.3,94.11c.2.01.4-.01.6,0,.18.65-.61.43-1,.6-.07-.33.15-.45.4-.6Z"/>
    <path class="st1" d="M63.87,126.58c-.17.16-.28.56-.6.6-.19-.47.33-.81.4-1l.2.4Z"/>
    <path class="st1" d="M11.95,45.81h-.4c.04-.25-.03-.54,0-.8.47.07.3.57.4.8Z"/>
    <path class="st1" d="M23.98,23.17c-.01.32.12.83-.2,1,0-.26.09-.67-.2-.8.26-.34.15-.49.4-.2Z"/>
    <path class="st1" d="M45.23,122.17c.05.11.49.53.4.6-.43.12-.42-.22-.6-.4l.2-.2Z"/>
    <path class="st1" d="M28.19,43.61c-1.51-2.53-2.71-4.96-3.61-7.82-.3-.21-.29-.81-.2-1.2-.11-.39-.3-.81-.4-1.2-.7-2.96-.58-6.13-.4-9.08l.2-.14c.05-.41.11-.74.2-1,.47.54-.15,3.07-.2,3.91-.19,3.57.74,8.03,2.05,11.37.69,1.77,1.74,3.36,2.35,5.16Z"/>
    <path class="st1" d="M75.1,47.82c5.46-6.14,7.98-14.86,7.44-23.08.08-.07.16-.13.25-.16.79-.23,3.42,5.89,3.64,6.52,2.04,5.98,2.32,12.71.3,18.73-.92,3.46-3.77,8.99-6.42,11.42-.05.23-.25.43-.6.6-.68.55-.61,1.18-.02.21.9-.04,2.4-1,2.43-1.41,4.6-2.87,8.52-7.21,10.86-12.09.26-.53,1.06-3.02,1.17-3.14.09-.09.55-.05.4.3-.18.79.16,1.61.2,2.31-.03,1.69-.1,3.36-.2,5.01,0,.7,0,1.44,0,2.2-1.12,8.34-6.28,14.73-13.43,18.84-.36.82-.76,1.02-1.2.6-.67.03-1.48.35-2,.8.39.04.79.04,1.2,0,.12-.39.52-.42.6,0,2.12-.37,4.66-.88,6.42-2,1.09-.45,2.34-1.07,3.41-1.6,1.3-.83,2.57-1.7,3.81-2.61.03-.03-.03-.16,0-.2l.48-.28c1.41-1.75,1.13-.43.71.95l-1.39,3.14c-.14.26-.2.47-.4.8-.36.15-.58.62-.6,1-1.22,1.83-2.97,4.04-4.81,5.21l-.6.6c-.95.99-2.08,1.79-3.41,2.4-.13.07-.27.13-.4.2-.84.49-1.64.76-2.41.8-2.08.76-4.22,1.3-6.42,1.6.3.09.5.23.6.4.01-.31.53-.29.6,0,3.82.62,7.49.51,11.23-.6-.34.71-1.04,1-1.6,1.4-1.17,1.06-2.41,2.05-3.81,2.81-1.6,1.12-3.85,2.2-5.81,2.61-.74-.09-1.48-.02-2.21.2l-2.61.2c-.94-.05-1.33-.17-2.21-.4-.31.04-.57.04-.8-.2-.12.17.02.37.4.6.62.33,1.2.65,1.8,1,1.27.58,2.67.87,4.22.85.35.67-3.78,1.41-4.23,1.46-2.57.31-5.14.04-7.4-1.31-1.04-.45-1.75-1.08-2.41-2l-.16-.3c.32-.98.77-1.89,1.36-2.71.83-.85,1.6-1.75,2.31-2.72-.23.21-.14,0,.09-.29.74-1.22,1.54-2.42,2.41-3.61,1.72-3.23,2.74-5.51,3.21-9.22.08-1.06.11-2.14,0-3.21,0-.03-.15-.35-.2-.6.12-.59.05-1.19-.2-1.8-.58-1.62-1.63-4.38-1.8-6.01.12-1.13.12-2.28,0-3.41.51-4.42,5.6-7.5,8.22-10.82Z"/>
    <path class="st1" d="M57.26,51.62c.05.14.17.27.2.4.34,2.2.32,4.31-.6,6.41-.01.13,0,.27,0,.4-.07.17-.13.17-.2,0-.3.22-.29.24-.2.6.22-.26.44-.52.8-.4.53-.4,1.14-.92,1.6-1.4.55-.34.51.09.4.6-.28,1.74-.31,1.83-1.4,3.21-.38.21-.56.36-.6.8.16.7.19.11.5.39,2.47,2.23,2.94,4.9,3.31,8.03.17.07.17.13,0,.2-1.34,1.84-2.94,3.38-4.81,4.61.26.51.11.65-.4.4-.09.3-.32.49-.6.6.15.39-.07.82-.66,1.3-.95,2.31-1.6,2.55-1.95.7-.97-1.76-2.38-3.01-3.81-4.41-.08-.23.12-.43.6-.6,1.69-1.49,3.5-3.22,3.62-5.71.2-4.38-4.77-6.95-7.13-2.91-.76-1.37-.57-3.65.3-4.91,1.8-2.6,6.04-1.74,8.62-4.51.27-.12.48-.39.6-.8.23-.79.68-1.62,1-2.4.14-1.18.41-1.38.8-.6Z"/>
    <path class="st1" d="M11.95,45.81c.35.85.71,1.61,1.2,2.4.19.58.46,1.11.8,1.6.58,1.35,1.44,2.54,2.21,3.81-.28-.15-.51-.35-.69-.61-.51-.71.05-.9-1.11-.59.12.21.36,1.16.4,1.2.14.14,1.05-.72.8.4-2.94-.4-.35,2.95-2.81,2.61,0-1.03-.17-2.11-.4-3.11-.19-.81-.72.2-.73.4,0,.19.27.42.27.62,0,.32-.18.62-.14.96.14,1.38,1.91,1.82.6,3.13-1.29-4.6-1.57-8.06-.8-12.83.04-.49.27-.48.4,0Z"/>
    <path class="st1" d="M85.12,27.58l.58.95c.29.44.49.94.61,1.49l.41,1.36c.61,2.87,1.44,5.18,1.6,8.22-.15,1.06-.14,2.15,0,3.21-.15,2.3-.66,4.92-1.6,7.01,2.03-7.64,1.59-15.47-2.11-22.44-.15-.29-1.38-2.33-1.5-2.41-.05-.03-.42-.07-.4.1.53,8.01-2.09,16.39-7.1,22.57-.22.27.04.58-.52.18,5.5-6.96,8.34-15.98,7.02-24.85,1.19,1.4,2.02,3.07,3.01,4.61Z"/>
    <path class="st1" d="M74.3,94.11c.05.24-.08.44-.4.6-.17.07-.34.3-.68.41-3.38,1.12-7.98,1.7-10.94-.61,3.44,1.51,6.65,1.66,10.27.54.29-.09,1.05-.27,1.16-.54-.85-.26-1.9-.08-2.69-.21-.59-.1-.93-.57-1.31-.79,1.57.65,3.02.48,4.61.6Z"/>
    <path class="st1" d="M82.12,60.64c.68.71-.42.47-.81.91-.18.2,0,.45-.02.47-.35.29-1.5-.11-1.58.82h.6s-.2,1-.2,1c-.75.15-.25-.67-.4-.8-.03-.03-.77-.03-.8,0-.15.14.35.96-.4.8-.42-1.12.04-.86.19-1.15.13-.26.36-1.02.41-1.06.13-.1.5.2.6.2.19-.27.66-.45,1-.4.46-.24.97-.53,1.4-.8Z"/>
    <path class="st1" d="M86.13,73.47c.03.64-.94.82-1.4.8l.2.6c-1.74-.59-3.43.96-5.21.6.24-.55.91-.78,1.44-.58l1.77-.42c1.16-.2,2.11-.55,3.21-1Z"/>
    <path class="st1" d="M56.86,58.44c.09-.88.27-1.68.61-2.49v-3.92c.57,2.16.62,4.46-.61,6.41Z"/>
    <path class="st1" d="M81.11,74.07l-.2.6c.11.1,1.68-.14,2-.2-.99.44-2.15.78-3.21,1-.18.04-.42-.03-.6,0-.43.1-.63.04-.6-.2.16-.41.96-.61,1.4-.6.37-.18.87-.41,1.2-.6Z"/>
    <path class="st1" d="M80.51,83.89l-.06.26c-1.01.43-2.05.83-3.15.95-.56.14-1.43.31-2,.4-.02.32-.51.29-.6,0-.05.32-.38.2-.6,0,1.98-.34,3.83-1.05,5.73-1.59.23-.07.53.03.68-.01Z"/>
    <path class="st1" d="M82.92,83.09c-.66.32-1.36.84-2.15,1.15-.95.38-2.48.95-3.46.85.98-.24,2.29-.74,3.21-1.2.84-.24,1.57-.58,2.41-.8Z"/>
    <path class="st1" d="M93.34,69.26c-1.33,1.38-2.17,1.8-3.81,2.61.93-.77,1.92-1.5,2.9-2.21.29-.21.43-.49.9-.4Z"/>
    <path class="st1" d="M84.92,86.7c-.99,1.15-2.38,2.27-3.81,2.81,1.25-.87,2.54-1.89,3.81-2.81Z"/>
    <path class="st1" d="M63.47,86.5c-.06.17-.12.17-.2,0,.88-1.19,1.7-2.44,2.61-3.61-.46.87-2.35,3.4-2.41,3.61Z"/>
    <path class="st1" d="M93.14,72.87c.26-1.64,1.74-3.13,1.5-4.81-.36.36-.65,1.14-1.3,1,.63-.67,1.21-1.39,1.91-2-.06,2.05-1.14,4.01-2.11,5.81Z"/>
    <path class="st1" d="M63.47,86.5s.23.28.17.37c-.21.3-1.42,1.66-1.84,2.17-.13.16-.72.42-.73.47.71-1.04,1.45-1.99,2.21-3.01h.2Z"/>
    <path class="st1" d="M86.93,80.48c-.74,1.35-2.29,1.73-3.61,2.4l3.41-2.4c.06-.17.12-.17.2,0Z"/>
    <path class="st1" d="M94.75,53.03c-.06.17-.12.17-.2,0,.05-1.64-.21-3.44.2-5.01.09,1.54.07,3.46,0,5.01Z"/>
    <path class="st1" d="M61.07,89.5c-.05.16.27.55.2.6-1.01-.09-.37.17-.45.48-.06.25-.52.33-.73.67-.19.3-.09.91-.23,1.26-.05-.06-.32-.1-.38-.33-.18-.73,1.18-2.09,1.58-2.67Z"/>
    <path class="st1" d="M66.88,62.05c-.09-.84-.1-2.57,0-3.41.34.93.34,2.46,0,3.41Z"/>
    <path class="st1" d="M69.09,73.67v-3.21c.23,1.44.18,1.79,0,3.21Z"/>
    <path class="st1" d="M88.33,42.81c-.34-.85-.33-2.39,0-3.21.05.98.06,2.23,0,3.21Z"/>
    <path class="st1" d="M57.26,51.62l-.6-.2c.1.36-.09.54-.2.8l.2-1.8c.39.13.48.86.6,1.2Z"/>
    <path class="st1" d="M73.09,92.31h.2c-.72.33-1.97.25-2.81.2.68-.4,1.77-.16,2.61-.2Z"/>
    <path class="st1" d="M13.95,49.82c-.57-.29-.65-1.04-.8-1.6.49.78.44.75.8,1.6Z"/>
    <path class="st1" d="M75.3,92.11c-.65.13-1.34.15-2,.2-.07,0-.13,0-.2,0,.56-.28,1.69-.64,2.21-.2Z"/>
    <path class="st1" d="M94.55,55.23c-.35-.54-.02-1.46,0-2.2h.2c-.04.77-.1,1.44-.2,2.2Z"/>
    <path class="st1" d="M68.88,69.86c-.12-.54-.17-1.24-.2-1.8.17.47.85,1.15.2,1.8Z"/>
    <path class="st1" d="M55.45,54.63c-.13.45.3.78-.5,1l-.1-.19c.1-.11.13-.74.6-.8Z"/>
    <path class="st1" d="M92.74,73.67c-.2.34-.38.67-.6,1l-.2-.1c.08-.23.63-1.35.8-.9Z"/>
    <path class="st1" d="M80.71,61.44c-.38.2-.34.41-1,.4-.15-.53.41-.42.6-.6l.4.2Z"/>
    <path class="st1" d="M57.86,61.44c-.21.26-.41.53-.6.8-.13-.56-.12-.64.6-.8Z"/>
    <path class="st1" d="M57.26,59.04c-.26.19-.39.47-.8.4-.18-.2-.09-.56.2-.6.07.01.14-.01.2,0,.05.01.24.24.4.2Z"/>
    <path class="st1" d="M75.3,85.49v.4c-.19-.03-.43.04-.6,0-.34-.14-.39-.35,0-.4.19-.02.42.03.6,0Z"/>
    <path class="st1" d="M67.48,91.91c.27.07.4.21.4.4v.2c-.26-.14-.61-.12-.8-.5,0-.18.26-.09.4-.1Z"/>
    <path class="st1" d="M87.33,79.88c-.12.21-.29.39-.4.6h-.2l-.2-.1c.16-.39.6-.37.8-.5Z"/>
    <path class="st1" d="M68.28,92.11c-.16-.03-.38.2-.4.2-.2-.02-.33-.22-.4-.4.51-.02.53.13.8.2Z"/>
    <path class="st1" d="M79.91,74.67c-.5.25-.87.42-1.4.6.02.34-.36.37-.6.2-.2-.43,1.18-.83,1.6-.93.15-.03.41-.11.4.12Z"/>
    <path class="st1" d="M79.11,75.47c-.24.04-.95.55-1.2,0,.22,0,.4-.13.6-.2l.6.2Z"/>
    <path class="st1" d="M74.7,85.49v.4c-.26-.06-.55-.06-.6-.4.2-.01.4.02.6,0Z"/>
    <path class="st1" d="M23.98,33.39c.34.14.49.85.4,1.2-.03.47-.03.94,0,1.4.96,2.58,2.06,5.09,3.55,7.58.08.71.31,1.13.87,1.55.09.59.26.86.53.81l1.07,1.29c1.41,1.28,2.5,2.78,4.01,4.01,1.53,1.3,2.86,2.77,4.01,4.41,1.8,3.98.86,5.64-.2,9.42-3.22,6.78-1.21,14.4,2.92,20.15,1.97,2.02,3.59,4.22,4.84,6.61.03,1.45-2.64,2.92-3.75,3.5-3.26,1.23-8.03,1.17-11.03-.8l.03-.22c1.13-.04,2.26-.1,3.38-.18,1.06-.19,2.7-.65,3.61-1.2-.01-.19-.21-.26-.6-.2-2.49.52-5.95-.18-8.42-.8-1.46-.47-2.89-1.02-4.21-1.8-1.6-1.17-3.34-2.28-4.61-3.81-1.52-1.47-.57-1.12.8-.6,1.2.26,2.37.53,3.61.6,1.77.24,3.56.07,5.31-.26.14-.45.76-.42,1.11-.14.13-.19.13-.33,0-.4-.32.51-1.11.23-1.4-.2-3.98-.92-7.7-2.56-10.83-5.01-.86-.49-1.98-1.33-2.41-2.2-2.09-2.3-3.61-4.78-4.81-7.62-.38-.99-.71-1.74-1-2.81-.11-.43-.04-.63.2-.6,3.94,4.65,9.6,7.15,15.44,8.62.8-.08,1.4.05,1.8.4.37.02.5-.05.4-.2-.6.05-1.29-.07-1.6-.6-2.11-1.01-3.81-2.14-5.61-3.61-.88-.56-1.69-1.24-2.41-2-3.47-2.99-5.4-6.68-6.62-11.02l.11-.98c-.58-.6-1.77-5.9.07-4.62.61,3.72,1.01,4.16,1.21,1.31.12-.27.32-.47.58-.6-.7-1.82.41-2.64,1.32-.72l.52.6c.11.18.21.18.4.6,1.01,1.22,2.08,2.35,3.21,3.41l.8.6c.38-.21.52.12.2.4,1.5,1.14,3.03,2.21,4.61,3.21.24-.11.37-.24.4-.4-.38.14-.77-.3-.4-.6-.29-.45-.62-.85-1-1.2-.92.12-1.22-.88-1.4-1.6-1.08-1.6-2.18-3.85-3.01-5.61-2.07-4.83-2.79-9.86-2-15.03.83-4.88,2.36-9.69,5.41-13.63l.21.03c-.31,3.24-.18,6.44.39,9.58Z"/>
    <path class="st1" d="M10.94,67.06l-.2.6c-.08-.28-.35-.57-.2-1,.24,0,.29.27.4.4Z"/>
    <path class="st1" d="M19.97,52.43c-2.32-4.94-2.93-9.59-2-15.03.02,1.85-.31,3.66-.21,5.52.17,3.28,1.23,6.42,2.21,9.51Z"/>
    <path class="st1" d="M42.62,86.7c.86.85,1.66,1.78,2.41,2.81.41.71,1.37,2.2,1.06,2.95-.06.14-1.24,1.53-1.41,1.67-.71.59-1.61.88-2.45,1.2l-.2-.8c1.29.4,1.11.12,1.91-.41s.43-.35.89-.84c.37-.4,1.08-.74,1.02-1.44-.09-1.02-3.53-5.04-4.4-6.04-.22-.25-.76-.49-.79-.53-.07-.12.19-.45.09-.57-.15-.19-.6-.09-.73-.33-.14-.27-.07-.81-.21-1.1-.08-.16-.28-.19-.35-.33-2.87-5.67-4.03-10.58-1.94-16.87.12-.36.35-.82.71-1-1.37,4.9-2.16,7.99-.54,13.07,1.06,3.31,2.83,5.9,4.95,8.58Z"/>
    <path class="st1" d="M28.19,43.61c.72,1.21,1.48,2.4,2.21,3.61-.21-.19-.88-.83-1-.88-.16-.07-.49.09-.61,0-.36-.29-.08-.95-.23-1.1-.07-.07-.41.04-.53-.06-.12-.11.04-.86-.85-.76-.12-.15.62-.46.52-.81-.07-.25-.88-1.79-1.07-2.14-.11-.21-.32-.22-.39-.33-.26-.38.28-.72-.66-.33-.07-.08.38-1.52-.26-1.96-.14-.1-.48,0-.52-.05-.16-.17.12-.83.08-1.09-.06-.4-.4-1.2-.5-1.7,0-.18,0-.26.2-.2,1.08,2.64,2.28,5.25,3.61,7.82Z"/>
    <path class="st1" d="M18.96,80.28c.62-.4,1.03.57,1.36.8,1.03.74,2.74,1.78,3.88,2.27,1.84.81,3.78,1.09,5.58,1.93-.21.11-.48.11-.8,0-4.15-1.33-6.17-2.13-9.82-4.61-.18-.13-.25-.27-.2-.4Z"/>
    <path class="st1" d="M19.97,57.44c.05.04.34-.08.54.06.83.6,2.86,3.36,2.47.54.27.4,1.04,1.13,1.4,1.6.36.05.63.51.4.8.71.75.12.75-.6.4-.75-.12-1.4-.54-1.95-1.25l-1.46-.95c-.08-.09-.12-.3-.2-.4-.59.16-.72-.02-.6-.6-.18-.06-.17-.12,0-.2Z"/>
    <path class="st1" d="M11.75,70.46c.73.37.69,1.34,1.03,2.08.8,1.76,2.27,3.28,3.43,4.75.21.26.35.41.35.78-.35-.12-.68-.38-1-.8-1.86-2.43-2.71-3.97-3.81-6.81Z"/>
    <path class="st1" d="M23.78,24.17c-.02.62-.19,1.14-.21,1.7-.1,2.53.08,5.02.41,7.52-.18-.71-.58-1.51-.6-2.31v-7.31c.05-.07.08-.25.2-.4.37-.29.39.46.2.8Z"/>
    <path class="st1" d="M29.79,85.29c.52.09.82.16,1.4.2.4-.01.35.25,0,.4-1.91.53-4.49.85-6.42.4,1.84.1,3.61-.08,5.41-.4-.11-.27-.91-.51-1.2-.6.26.03.56-.04.8,0Z"/>
    <path class="st1" d="M19.97,57.44v.2c-.07.08-.13.08-.2,0-1.27-.92-2.61-2.1-3.21-3.41,1.3,1.05,2.02,2.22,3.41,3.21Z"/>
    <path class="st1" d="M45.03,89.5c-.94-.77-1.66-1.86-2.41-2.81.09-.41.52.22.6.31.73.92,1.21,1.47,1.81,2.5Z"/>
    <path class="st1" d="M28.59,75.87c.2.22.06.28-.4.2-.78-.11-1.1-.22-1.8-.4h.8s-.2-.4-.2-.4c.46.22,1.13.39,1.6.6Z"/>
    <path class="st1" d="M21.37,71.67c-.91-.42-1.81-1.2-2.41-2,.72.62,1.64,1.38,2.41,2Z"/>
    <path class="st1" d="M37.61,92.71c.32-.07.78-.49,1.2-.4-.07.28-.37.46-.6.6l-.6-.2Z"/>
    <path class="st1" d="M22.17,30.58c.19-1.22.19-2.39.3-3.61.57.59.21,1.54.31,2.29.05.37.32.66.38,1.02.11.76-.23,1.4.01,2.09l-.8-.5c-.17-.47,1.01-.3.34-1.05-.13-.14-.42-.15-.54-.25-.05.31.04.68,0,1-1.41.17-.99-.05-1.52-.8-.1-.14-.46-.19-.49-.31-.22-.74.46-.38.71-.69.06-.07-.12-.39-.11-.41.42-.4.38.38.4.4.59.39.2-.59.6-.6.12.47.03,1.11.4,1.4Z"/>
    <path class="st1" d="M24.18,60.84c.78,0,1.19.26,1.2.8.18.06.17.12,0,.2-.42-.16-1.95-.73-2.15-.86s-.38-.87-.48-.94c-.21-.15-1.11.75-.57-.41-.57.09-1.04-.6-1.4-1,.48-.1.61.19.9.4.84.61,1.64,1.23,2.5,1.81Z"/>
    <path class="st1" d="M25.38,60.84c.11.13.21.38.4.6.23.36-.11.43-.4.2-.42-.24-.8-.53-1.2-.8.47,0,.7.14.6-.4.2-.15.4-.01.6.4Z"/>
    <path class="st1" d="M20.57,58.24c-.3,0-.97.6-1.2.4-.45-.4.97-.47.4-1,.04.03.16-.03.2,0,.34.24.36.32.6.6Z"/>
    <path class="st1" d="M24.38,59.64c.75-.22.73.65,1,1.2-.13-.14-.49-.26-.6-.4-.24-.29-.27-.63-.4-.8Z"/>
    <path class="st1" d="M25.78,61.44c.2.24.73.32.6.8-.31-.23-.67-.27-1-.4v-.2l.4-.2Z"/>
    <path class="st1" d="M24.58,35.79l-.2.2c-.08-.42-.37-1.16,0-1.4.1.36.09.86.2,1.2Z"/>
    <path class="st1" d="M28.59,75.87c.27.12.67.15.6.4-.41.19-.8-.17-1-.2l.4-.2Z"/>
    <path class="st1" d="M31.19,85.49c.2.01.4-.01.6,0-.04.34-.36.33-.6.4v-.4Z"/>
    <path class="st1" d="M38.41,55.63l-4.01-4.41c1.69,1.37,3.06,2.31,4.01,4.41Z"/>
    <path class="st1" d="M16.56,78.08c.74.74,1.81,1.56,2.41,2.2.08.09.12.29.2.4-1.91-1.3-2.23-1.61-3.61-3.41.31.25.73.54,1,.8Z"/>
    <path class="st1" d="M29.19,91.91c-1.77-.44-2.73-.72-4.21-1.8l4.21,1.8Z"/>
    <path class="st1" d="M34.6,94.11c-.06.01-.21.18-.48.21-.92.1-2.09-.26-2.92.19-.15-.1-.4-.17-.4-.4h3.81Z"/>
    <path class="st1" d="M21.17,85.69c-.35-.07-1.35-.45-1.4-.4-.35.36.79.54.6,1-.24-.11-1.44-1.17-1.2-1.4l2,.8Z"/>
    <path class="st1" d="M56.66,58.84l-.2.6c-.36-.06-.34-.8.2-.6Z"/>
    <path class="st1" d="M55.25,76.48c.23-.27.41-.4.6-.6.02.4-.2.6-.6.6Z"/>
    <path class="st1" d="M63.67,80.88c-1.23,2.07-2.57,4.08-4.01,6.01-1.6,2.92-2.64,5.02-1.4,8.42.05.31.15.6.4.8.83,1.64,2.43,3.18,3.61,4.61.59.92,1.26,1.79,2,2.61,2.52,3.47,4.77,8.9,3.36,13.15l.25.13c-.09.94-.58,4.3-1.11,4.84-.2.2-.68-.6-.63-.88-.36.1-.71.16-1.06.19-.11-1.13-.21-2.29-.2-3.41-.09-1.6-3.19-8.69-4.41-9.02-.05-.01-.12.08-.2.2,0,.55.21.95.6,1.2.42-.08.55.19.4.8.43,1.14,1,3.02,1.2,4.21.1,2.21.1,4.41,0,6.61-.54,3.57-2.18,6.71-4.21,9.62-.3.29-.57.62-.8,1-1.23,2.11-3.85,4.79-5.81,6.21-.61.61-1.27,1.16-2,1.6-.07.06-.13.14-.2.2-1.43.75-.71-.45-.2-1.2.35-.57.75-1.1,1.2-1.6.39-.66.62-1.25,1.2-1.8.56-.79.96-1.59,1.2-2.4.7-1.59,1.17-3.35,1.6-5.01.59-.61,1.14-2.49.84-3.29.41-2.14.81-4.61-.04-6.73-.45-4.5-2.32-8.34-2.8-12.73-.69-6.34.61-11.5,2-17.53.06-.17.12-.17.2,0,.43-.46.7-1.06.8-1.8-.14-.45.34-1.45.8-1.6.41-.54.75-1.14,1-1.8-.28-.28-.16-.4.2-.2.66-.39,1.19-1.05,1.59-1.99,1.31-1.15,2.45-2.36,3.42-3.62.64-1.55,2.08-3.14,3.61-3.81-.06,2.79-.89,5.72-2.41,8.02Z"/>
    <path class="st1" d="M62.87,68.26c.22-.68.53-1.31.92-1.9.28-.03,1.15,1.95,1.29,2.3.82,1.63,1.04,2.32,1,4.21-1.23,1.24-2.38,2.57-3.61,3.81-.97,1.24-2.08,2.41-3.32,3.52-.29.75-1,1.75-1.69,2.09-.05.07-.15.12-.2.2-.06.32-.2.45-.4.4-.06.1-.13.1-.2,0,.47-.64-.07-.94-.6-.6.16-.94-.33-.45-.65-.61-.19-.1-.14-.32-.31-.38-.19-.07-.58.05-.64,0-.08-.07-.09-1.62-.41-2-.76,1.2-1.55.41-1.4-.8.13.24.25.48.38.71.07.13.07.66.42.29.06-.07.38-1.22.64-1.66.4-.68.74-.85,1.16-1.34.29-.12.5-.3.6-.6.14-.14.27-.26.4-.4.77-.82,1.62-1.17,2.55-1.04,0-.54.03-1.05.66-1.16l.24-.33c.44.04.92-.35.57-.67-.31-.23-.11-.56.59-.99l.21-.41c0-.07,0-.13,0-.2.72-.69,1.25-1.59,1.8-2.4Z"/>
    <path class="st1" d="M65.68,123.97c-.06.11-.13.11-.2,0-.2-.39-.19-1.53-.02-1.92.71-.37.58-.46-.38-.28-.17-.07-.17-.13,0-.2-.13-.3-.13-.57,0-.8.3-.54.82-.64,1.4-.6l.2,1.2c.47-1.53.88-3.01,1-4.61l-.4.2c-.3-.82.49-1.18.6-1.71.39-2.01-.82-6.96-1.82-8.79-.12-.22-.52-1-.64-1.08-.46-.29-.65.39-.34-.85l-1,.4c-.31-.61.59-.74.6-.9,0-.04-.37-.67-.4-.7.06-.1.13-.1.2,0,4.52,6.31,5.1,13.88,1.2,20.64Z"/>
    <path class="st1" d="M60.26,108.54c0-.07-.42-.59.3-.6.17,0,.05.29.24.41s.55.13.64.22c.03.03-.12.36-.03.52,1.69,3.1,2.92,4.43,3.47,8.27-.06.17-.12.17-.2,0-.37-2.35-1.3-4.24-2.41-6.21-.57-.8-1.17-1.6-1.8-2.4-.11.14-.17.07-.2-.2Z"/>
    <path class="st1" d="M65.08,121.77l.7-.8c.52.35.56.81.5,1.4l-.6-.2c.14.81.17,1.08-.2,1.8-.22.44-.42.91-.6,1.4-.06.07-.13.14-.2.2l-.79.8c.3-1.54.69-3.08,1.19-4.6Z"/>
    <path class="st1" d="M59.66,86.9c1.15-2.1,2.67-3.97,4.01-6.01-.93,2.16-2.49,4.21-4.01,6.01Z"/>
    <path class="st1" d="M65.08,121.57c0,.07,0,.13,0,.2-.13,1.24-.57,3.04-1.2,4.11-.02.46.03.37.27.07.35-.44.47-.33.53-.38,0,.57-.49.71-.8,1-.41.22-.34-.04-.2-.4.45-1.33,1.09-3.66,1.2-5.01.12-.04.18.1.2.4Z"/>
    <path class="st1" d="M64.47,103.33h-.2c-.05-.06-.81-.32-.9-.8l-.1.6c-1-.44-.19-.72-.23-1.07-.06-.53-.96-.67-.77-1.34.74.9,1.46,1.57,2.21,2.61Z"/>
    <path class="st1" d="M62.47,121.37c-.37-.21-.18-.72-.14-1.04.12-1.17.21-2.3.15-3.48-.03-.67-.5-1.53,0-2.1.35,2.04.31,4.57,0,6.61Z"/>
    <path class="st1" d="M49.24,138.8c-.23.72-.83,1.39.2,1.2-.52.45-1.05,1.13-1.8,1.2-.22-.21,1.39-2.14,1.6-2.4Z"/>
    <path class="st1" d="M85.12,27.58c.29.45,1,.78.8,1.6l.6-.2c-.21.81.03,1.6.2,2.4l-1.6-3.81Z"/>
    <path class="st1" d="M65.08,120.77c0,.26.02.54,0,.8l-.2-.4c.09-1.05-.04-2.75-.2-3.81h.2c.17,1.18.23,2.2.2,3.41Z"/>
    <path class="st1" d="M60.46,108.74c1.09.47,1.26,1.43,1.8,2.4-.54-.25-.8-1.82-1-.6-.08-.21-.28-.54-.4-.8-.41-.21-.68-.6-.4-1Z"/>
    <path class="st1" d="M65.08,68.66c-.17-.34-.53-.76-.75-1.16s-.26-1.38-.7-.59c-.29.51-.39.8-.76,1.35-.03-.39.67-2.21.9-2.2.57.75,1.22,1.64,1.3,2.6Z"/>
    <path class="st1" d="M51.64,138.2c-.46.67-1.23,1.32-2,1.6.77-.67,1.2-1.02,2-1.6Z"/>
    <path class="st1" d="M64.88,125.38c-.38-.51.45-1.11.6-1.4h.2c-.3.52-.26.83-.8,1.4Z"/>
    <path class="st1" d="M58.26,130.99c-.24.34-.3.83-.8,1,.21-.35.23-1.11.8-1Z"/>
    <path class="st1" d="M58.66,96.12c-.37-.13-.44-.44-.4-.8.02.06.32.65.4.8Z"/>
    <path class="st1" d="M62.47,76.68c.36.44-.02.44-.23.67-.93,1.02-2.09,2.07-3.13,2.98l.15.95c-1.3-.49-.55,1.65-1.8,1,1.68-2.48,2.96-3.53,5.01-5.61Z"/>
    <path class="st1" d="M54.65,87.7c.17-.5.35-1.16.6-1.6.04-.07.15-.13.2-.2-.14.67.35,1.68-.8,1.8Z"/>
    <path class="st1" d="M60.46,108.74c.04.38.25.67.4,1-.97-.16-.65-.55-.6-1.2.1.03.15.18.2.2Z"/>
    <path class="st1" d="M61.07,70.86c0,.08.25.32.2.39-.13.15-1.09.33-1,1.02-.02.43-.29.76-.8,1,.03.13.26.32.2.4-.02.02-.35-.07-.4.14-.17.65.36,1.02-.9,1.08-.35.02-.75-.21-.98-.17-.45.08-.39,1.03-1.12.76,1.56-1.58,3.17-3.12,4.81-4.61Z"/>
    <path class="st1" d="M60.26,72.27c.2-.08.31-.28.6-.2-.06.91-.45,1.41-1.4,1.2,0-.02-.16-.04-.16-.1.02-.38.62-.77.96-.91Z"/>
    <path class="st1" d="M42.82,67.06c2.2,3.33,2.62,3.68,5.41,6.41.44.13.64.33.6.6,1.02.1,2.12,1.44,2.8,2.28.77.68,1.11,1.39,1.01,2.13.05.31.34,1.61.83,1.18.96-1.49,1.28.12,1.32,1.2.47.14,2.24.95,2.34,1.26.09.26-.24.64-.48.77-.45,1.1-.99,2.16-1.6,3.21-.1.53-.34,1.12-.6,1.6.14.3.21.62.19.95-2.45,8.59-2.75,17.05.33,25.5.52,1.38.61,2.65.28,3.82.82,2.05.48,4.44.07,6.56.27,1.03-.22,2.63-.87,3.46.28,1.53-.42,4-1.6,5.01-.17.9-.59,1.7-1.2,2.4.19.52-.6,1.91-1.2,1.8-.28.47-.62.8-1,1,1.64-4.45,2.75-6.94,1.4-11.82-.34-.9-.74-1.77-1.2-2.61-2.61-5.43-3.82-6.32-4.61-12.83-.17-.72-.16-1.49,0-2.2.14-.33.24-.82-.2-.8.08.38-.05.79-.4,1.2-1.37,4.34-.91,8.19.6,12.43.08.41.02.61-.2.6-5.73-5.98-7.76-12.93-2.41-20.04.41-.35.74-.75,1-1.2.27-.28.51-.48.8-.8.57-.88,1.22-1.71,2-2.4,3.43-5.09,2.3-6.92-.8-11.42l-.8-1c-.07-.16-.12-.4-.2-.6-.21-.45-.48-.85-.8-1.2-2.8-4.44-5.02-10.59-2.21-15.63.58-1.67,1.04-1.94,1.4-.8Z"/>
    <path class="st1" d="M45.23,122.17c.23.28.13.39-.2.2-.07-.07-.14-.13-.2-.2l.2-.6c.07.19.15.49.2.6Z"/>
    <path class="st1" d="M45.03,108.74c.02.73-.01,1.47,0,2.2,0-.04-.18-.23-.21-.49-.07-.54.06-1.16,0-1.72h-.2s-.2.4-.2.4c.15-.46.15-.7.4-1.2.42-.23.37.45.2.8Z"/>
    <path class="st1" d="M49.24,138.8c.07-.21.13-.4.2-.6l1-1c-.55.93-.58.85-1.2,1.6Z"/>
    <path class="st1" d="M49.44,73.47c-.17.15-.27.53-.6.6-.2-.2-.4-.4-.6-.6.41.17.79.17,1.2,0Z"/>
    <path class="st1" d="M55.25,117.96c.33.15.53.33.6.71s.27,3.67.22,4.02c-.05.36-.35.25-.41.43-.11.36-.02,1.03-.21,1.46l.4-.2c.17,1.65-1.04,2.8-.8,4.41l-.6-.8c.94-3.63,1.18-6.26.8-10.02Z"/>
    <path class="st1" d="M46.43,108.94c.13.11.3,2.51.2,2.61-1.85.49-1.15-3.39-.2-2.61Z"/>
    <path class="st1" d="M52.85,132.99c.56.55-.4,1.03-.39,1.09.02.15.44.86.39.91-.54-.24-.81.03-1.2.4.12-.88.88-1.67,1.2-2.4Z"/>
    <path class="st1" d="M56.86,82.89c.16.43-.26,1.07-.6,1.4-.26.56-.64.85-.8,1.6-.03.15-.1.22-.2.2-.06.11-.13.11-.2,0,.43-1.01.71-1.88,1.25-2.87.09-.16.18-.27.35-.34h.2Z"/>
    <path class="st1" d="M55.25,86.1c.06.55-.06,1.3-.6,1.6h-.2c.24-1.06.28-.85.6-1.6h.2Z"/>
    <path class="st1" d="M45.03,108.74c0-.26.1-.66-.2-.8.13-.27.14-.67.4-.6-.04.44.18,1.12-.2,1.4Z"/>
    <path class="st1" d="M57.26,82.49c0,.62-.48,1.76-1,1.8.21-.44.32-.93.6-1.4.09-.14.31-.26.4-.4Z"/>
    <path class="st1" d="M42.82,67.06c-.09-.13-.5-.67-.6-.6-.02.57-.62,1.07-.8,1.4-.1-.36.71-2,.9-2l.5,1.2Z"/>
    <path class="st1" d="M46.23,97.72c-.67.99-1.21,1.54-2,2.4.35-.87,1.14-2.01,2-2.4Z"/>
    <path class="st1" d="M50.84,126.38c-.65-.64-.81-1.79-1.2-2.61.77.6.96,1.72,1.2,2.61Z"/>
    <path class="st1" d="M43.62,83.49c.79.13.59.65.8,1.2-.53-.22-.58-.85-.8-1.2Z"/>
    <path class="st1" d="M42.42,102.13c.42-.55.46-.66,1-1.2-.06.55-.57.91-1,1.2Z"/>
    <path class="st1" d="M45.43,86.3c-.54-.24-.6-.55-.8-1,.58.17.6.71.8,1Z"/>
  </g>
  <text class="st0" transform="translate(99.02 103.33)"><tspan x="0" y="0">PhoenixiTek</tspan></text>
</svg>